<svg xmlns="http://www.w3.org/2000/svg" width="1440" height="900"><path d="M661,397L559,412L635,567Z" fill="#9f7f80" stroke="#9f7f80" stroke-width="1.51"/><path d="M559,412L490,525L635,567Z" fill="#9f7f80" stroke="#9f7f80" stroke-width="1.51"/><path d="M635,567L811,512L661,397Z" fill="#987780" stroke="#987780" stroke-width="1.51"/><path d="M467,630L639,658L635,567Z" fill="#96747f" stroke="#96747f" stroke-width="1.51"/><path d="M766,652L811,512L635,567Z" fill="#916e7f" stroke="#916e7f" stroke-width="1.51"/><path d="M490,525L467,630L635,567Z" fill="#9b7b80" stroke="#9b7b80" stroke-width="1.51"/><path d="M661,397L530,272L559,412Z" fill="#a98a80" stroke="#a98a80" stroke-width="1.51"/><path d="M559,412L329,390L490,525Z" fill="#a98b80" stroke="#a98b80" stroke-width="1.51"/><path d="M490,525L370,612L467,630Z" fill="#9f7f80" stroke="#9f7f80" stroke-width="1.51"/><path d="M682,215L530,272L661,397Z" fill="#ab8d80" stroke="#ab8d80" stroke-width="1.51"/><path d="M639,658L766,652L635,567Z" fill="#906d7f" stroke="#906d7f" stroke-width="1.51"/><path d="M811,512L827,367L661,397Z" fill="#9a7980" stroke="#9a7980" stroke-width="1.51"/><path d="M827,367L682,215L661,397Z" fill="#a38480" stroke="#a38480" stroke-width="1.51"/><path d="M811,512L931,375L827,367Z" fill="#967480" stroke="#967480" stroke-width="1.51"/><path d="M766,652L880,565L811,512Z" fill="#8c697f" stroke="#8c697f" stroke-width="1.51"/><path d="M302,549L370,612L490,525Z" fill="#a48580" stroke="#a48580" stroke-width="1.51"/><path d="M530,272L329,390L559,412Z" fill="#ae9180" stroke="#ae9180" stroke-width="1.51"/><path d="M372,822L539,774L467,630Z" fill="#93717f" stroke="#93717f" stroke-width="1.51"/><path d="M467,630L539,774L639,658Z" fill="#927080" stroke="#927080" stroke-width="1.51"/><path d="M641,830L838,752L766,652Z" fill="#845f7e" stroke="#845f7e" stroke-width="1.51"/><path d="M530,272L406,233L329,390Z" fill="#b59a80" stroke="#b59a80" stroke-width="1.51"/><path d="M522,108L406,233L530,272Z" fill="#b99e80" stroke="#b99e80" stroke-width="1.51"/><path d="M329,390L302,549L490,525Z" fill="#aa8c7f" stroke="#aa8c7f" stroke-width="1.51"/><path d="M370,612L372,822L467,630Z" fill="#9a7980" stroke="#9a7980" stroke-width="1.51"/><path d="M880,565L931,375L811,512Z" fill="#906d7f" stroke="#906d7f" stroke-width="1.51"/><path d="M827,367L813,188L682,215Z" fill="#a68780" stroke="#a68780" stroke-width="1.51"/><path d="M931,375L813,188L827,367Z" fill="#9e7e80" stroke="#9e7e80" stroke-width="1.51"/><path d="M682,215L522,108L530,272Z" fill="#b49980" stroke="#b49980" stroke-width="1.51"/><path d="M766,652L838,752L880,565Z" fill="#86627f" stroke="#86627f" stroke-width="1.51"/><path d="M1121,576L1036,350L931,375Z" fill="#8b687f" stroke="#8b687f" stroke-width="1.51"/><path d="M641,830L766,652L639,658Z" fill="#89667f" stroke="#89667f" stroke-width="1.51"/><path d="M539,774L641,830L639,658Z" fill="#8a667f" stroke="#8a667f" stroke-width="1.51"/><path d="M329,390L270,376L302,549Z" fill="#b19680" stroke="#b19680" stroke-width="1.51"/><path d="M406,233L270,376L329,390Z" fill="#b79d80" stroke="#b79d80" stroke-width="1.51"/><path d="M596,54L522,108L682,215Z" fill="#b89e80" stroke="#b89e80" stroke-width="1.51"/><path d="M406,233L195,201L270,376Z" fill="#bda580" stroke="#bda580" stroke-width="1.51"/><path d="M813,188L786,96L682,215Z" fill="#ad9180" stroke="#ad9180" stroke-width="1.51"/><path d="M910,53L786,96L813,188Z" fill="#ad907f" stroke="#ad907f" stroke-width="1.51"/><path d="M838,752L982,693L880,565Z" fill="#815c7f" stroke="#815c7f" stroke-width="1.51"/><path d="M786,96L596,54L682,215Z" fill="#b49980" stroke="#b49980" stroke-width="1.51"/><path d="M239,753L372,822L370,612Z" fill="#9b7a7f" stroke="#9b7a7f" stroke-width="1.51"/><path d="M520,923L600,932L641,830Z" fill="#805c7f" stroke="#805c7f" stroke-width="1.51"/><path d="M302,549L222,630L370,612Z" fill="#a68880" stroke="#a68880" stroke-width="1.51"/><path d="M184,566L222,630L302,549Z" fill="#aa8d80" stroke="#aa8d80" stroke-width="1.51"/><path d="M931,375L990,199L813,188Z" fill="#9f7f80" stroke="#9f7f80" stroke-width="1.51"/><path d="M1121,576L931,375L880,565Z" fill="#89657f" stroke="#89657f" stroke-width="1.51"/><path d="M270,376L184,566L302,549Z" fill="#af9380" stroke="#af9380" stroke-width="1.51"/><path d="M810,914L918,818L838,752Z" fill="#77517e" stroke="#77517e" stroke-width="1.51"/><path d="M838,752L918,818L982,693Z" fill="#79547e" stroke="#79547e" stroke-width="1.51"/><path d="M520,923L641,830L539,774Z" fill="#85627e" stroke="#85627e" stroke-width="1.51"/><path d="M641,830L810,914L838,752Z" fill="#7c577e" stroke="#7c577e" stroke-width="1.51"/><path d="M372,822L520,923L539,774Z" fill="#8b677f" stroke="#8b677f" stroke-width="1.51"/><path d="M1036,350L990,199L931,375Z" fill="#97767f" stroke="#97767f" stroke-width="1.51"/><path d="M372,822L409,954L520,923Z" fill="#89647e" stroke="#89647e" stroke-width="1.51"/><path d="M222,630L239,753L370,612Z" fill="#a28380" stroke="#a28380" stroke-width="1.51"/><path d="M53,692L239,753L222,630Z" fill="#a58780" stroke="#a58780" stroke-width="1.51"/><path d="M1024,837L1049,674L982,693Z" fill="#754f7e" stroke="#754f7e" stroke-width="1.51"/><path d="M982,693L1049,674L880,565Z" fill="#7f5a7e" stroke="#7f5a7e" stroke-width="1.51"/><path d="M600,932L810,914L641,830Z" fill="#7b567e" stroke="#7b567e" stroke-width="1.51"/><path d="M786,96L696,-4L596,54Z" fill="#b89f80" stroke="#b89f80" stroke-width="1.51"/><path d="M841,-71L696,-4L786,96Z" fill="#b89e7f" stroke="#b89e7f" stroke-width="1.51"/><path d="M562,-109L376,44L522,108Z" fill="#c6b07f" stroke="#c6b07f" stroke-width="1.51"/><path d="M522,108L376,44L406,233Z" fill="#c0a97f" stroke="#c0a97f" stroke-width="1.51"/><path d="M270,376L20,397L184,566Z" fill="#b79e7f" stroke="#b79e7f" stroke-width="1.51"/><path d="M317,-2L376,44L452,-217Z" fill="#d0bd7e" stroke="#d0bd7e" stroke-width="1.51"/><path d="M376,44L264,126L406,233Z" fill="#c4ad7f" stroke="#c4ad7f" stroke-width="1.51"/><path d="M264,126L195,201L406,233Z" fill="#c3ad7f" stroke="#c3ad7f" stroke-width="1.51"/><path d="M1049,674L1121,576L880,565Z" fill="#805a7e" stroke="#805a7e" stroke-width="1.51"/><path d="M1036,350L1132,180L990,199Z" fill="#98777f" stroke="#98777f" stroke-width="1.51"/><path d="M990,199L910,53L813,188Z" fill="#a78980" stroke="#a78980" stroke-width="1.51"/><path d="M851,1073L901,945L810,914Z" fill="#6b457d" stroke="#6b457d" stroke-width="1.51"/><path d="M520,923L531,1062L600,932Z" fill="#7d577e" stroke="#7d577e" stroke-width="1.51"/><path d="M266,950L409,954L372,822Z" fill="#8c697f" stroke="#8c697f" stroke-width="1.51"/><path d="M918,818L1024,837L982,693Z" fill="#734e7d" stroke="#734e7d" stroke-width="1.51"/><path d="M1049,674L1180,725L1121,576Z" fill="#75507e" stroke="#75507e" stroke-width="1.51"/><path d="M901,945L1024,837L918,818Z" fill="#6e497d" stroke="#6e497d" stroke-width="1.51"/><path d="M674,1076L810,914L600,932Z" fill="#744f7e" stroke="#744f7e" stroke-width="1.51"/><path d="M810,914L901,945L918,818Z" fill="#704b7d" stroke="#704b7d" stroke-width="1.51"/><path d="M46,119L108,284L195,201Z" fill="#cbb77e" stroke="#cbb77e" stroke-width="1.51"/><path d="M195,201L108,284L270,376Z" fill="#c1aa7f" stroke="#c1aa7f" stroke-width="1.51"/><path d="M184,566L79,573L222,630Z" fill="#ad9180" stroke="#ad9180" stroke-width="1.51"/><path d="M239,753L266,950L372,822Z" fill="#94737f" stroke="#94737f" stroke-width="1.51"/><path d="M20,397L79,573L184,566Z" fill="#b69c7f" stroke="#b69c7f" stroke-width="1.51"/><path d="M264,126L46,119L195,201Z" fill="#ccb87f" stroke="#ccb87f" stroke-width="1.51"/><path d="M376,44L317,-2L264,126Z" fill="#cbb77f" stroke="#cbb77f" stroke-width="1.51"/><path d="M562,-109L522,108L596,54Z" fill="#c2ab7f" stroke="#c2ab7f" stroke-width="1.51"/><path d="M1121,576L1186,367L1036,350Z" fill="#87637f" stroke="#87637f" stroke-width="1.51"/><path d="M990,199L1118,120L910,53Z" fill="#a38480" stroke="#a38480" stroke-width="1.51"/><path d="M696,-4L562,-109L596,54Z" fill="#c1aa7f" stroke="#c1aa7f" stroke-width="1.51"/><path d="M633,-234L562,-109L696,-4Z" fill="#c7b27f" stroke="#c7b27f" stroke-width="1.51"/><path d="M47,851L266,950L239,753Z" fill="#99787f" stroke="#99787f" stroke-width="1.51"/><path d="M409,954L531,1062L520,923Z" fill="#805a7e" stroke="#805a7e" stroke-width="1.51"/><path d="M303,1083L531,1062L409,954Z" fill="#7f5b7e" stroke="#7f5b7e" stroke-width="1.51"/><path d="M910,53L841,-71L786,96Z" fill="#b2987f" stroke="#b2987f" stroke-width="1.51"/><path d="M928,-70L841,-71L910,53Z" fill="#b49a80" stroke="#b49a80" stroke-width="1.51"/><path d="M1187,230L1132,180L1036,350Z" fill="#94737f" stroke="#94737f" stroke-width="1.51"/><path d="M531,1062L674,1076L600,932Z" fill="#76507e" stroke="#76507e" stroke-width="1.51"/><path d="M108,284L20,397L270,376Z" fill="#c0a87f" stroke="#c0a87f" stroke-width="1.51"/><path d="M-40,323L20,397L108,284Z" fill="#c6b07f" stroke="#c6b07f" stroke-width="1.51"/><path d="M79,573L53,692L222,630Z" fill="#ac907f" stroke="#ac907f" stroke-width="1.51"/><path d="M-50,626L53,692L79,573Z" fill="#b1967f" stroke="#b1967f" stroke-width="1.51"/><path d="M1121,576L1253,573L1186,367Z" fill="#7d587e" stroke="#7d587e" stroke-width="1.51"/><path d="M1176,795L1180,725L1049,674Z" fill="#6f497d" stroke="#6f497d" stroke-width="1.51"/><path d="M1176,795L1049,674L1024,837Z" fill="#6f497d" stroke="#6f497d" stroke-width="1.51"/><path d="M1132,180L1118,120L990,199Z" fill="#9d7c7f" stroke="#9d7c7f" stroke-width="1.51"/><path d="M1234,126L1118,120L1132,180Z" fill="#9a7980" stroke="#9a7980" stroke-width="1.51"/><path d="M1186,367L1187,230L1036,350Z" fill="#8f6c7f" stroke="#8f6c7f" stroke-width="1.51"/><path d="M1094,-30L928,-70L910,53Z" fill="#af9280" stroke="#af9280" stroke-width="1.51"/><path d="M841,-71L804,-199L696,-4Z" fill="#bea67f" stroke="#bea67f" stroke-width="1.51"/><path d="M674,1076L851,1073L810,914Z" fill="#6b467c" stroke="#6b467c" stroke-width="1.51"/><path d="M901,945L1116,944L1024,837Z" fill="#67417c" stroke="#67417c" stroke-width="1.51"/><path d="M1180,725L1253,573L1121,576Z" fill="#754f7d" stroke="#754f7d" stroke-width="1.51"/><path d="M1348,256L1234,126L1187,230Z" fill="#916e7f" stroke="#916e7f" stroke-width="1.51"/><path d="M1116,944L1176,795L1024,837Z" fill="#66407c" stroke="#66407c" stroke-width="1.51"/><path d="M1389,690L1351,571L1253,573Z" fill="#6d477d" stroke="#6d477d" stroke-width="1.51"/><path d="M317,-2L264,-60L264,126Z" fill="#cfbc7e" stroke="#cfbc7e" stroke-width="1.51"/><path d="M452,-217L264,-60L317,-2Z" fill="#d4c37e" stroke="#d4c37e" stroke-width="1.51"/><path d="M20,397L-44,476L79,573Z" fill="#bca37f" stroke="#bca37f" stroke-width="1.51"/><path d="M-40,323L-44,476L20,397Z" fill="#c4ae7f" stroke="#c4ae7f" stroke-width="1.51"/><path d="M130,-60L46,119L264,126Z" fill="#d3c27e" stroke="#d3c27e" stroke-width="1.51"/><path d="M-81,265L-40,323L108,284Z" fill="#cab77f" stroke="#cab77f" stroke-width="1.51"/><path d="M1052,1091L1116,944L901,945Z" fill="#5f3a7c" stroke="#5f3a7c" stroke-width="1.51"/><path d="M266,950L303,1083L409,954Z" fill="#87637f" stroke="#87637f" stroke-width="1.51"/><path d="M531,1062L303,1083L674,1076Z" fill="#77527e" stroke="#77527e" stroke-width="1.51"/><path d="M674,1076L977,1097L851,1073Z" fill="#643e7c" stroke="#643e7c" stroke-width="1.51"/><path d="M239,1083L303,1083L266,950Z" fill="#87637f" stroke="#87637f" stroke-width="1.51"/><path d="M-44,778L47,851L53,692Z" fill="#a7897f" stroke="#a7897f" stroke-width="1.51"/><path d="M53,692L47,851L239,753Z" fill="#a38480" stroke="#a38480" stroke-width="1.51"/><path d="M-44,476L-50,626L79,573Z" fill="#b89e80" stroke="#b89e80" stroke-width="1.51"/><path d="M-213,679L-50,626L-267,517Z" fill="#bda57f" stroke="#bda57f" stroke-width="1.51"/><path d="M1118,120L1094,-30L910,53Z" fill="#a78980" stroke="#a78980" stroke-width="1.51"/><path d="M1215,-48L1094,-30L1118,120Z" fill="#a48680" stroke="#a48680" stroke-width="1.51"/><path d="M893,-248L804,-199L928,-70Z" fill="#bfa87f" stroke="#bfa87f" stroke-width="1.51"/><path d="M928,-70L804,-199L841,-71Z" fill="#bca380" stroke="#bca380" stroke-width="1.51"/><path d="M562,-109L452,-217L376,44Z" fill="#cebb7e" stroke="#cebb7e" stroke-width="1.51"/><path d="M1348,256L1187,230L1186,367Z" fill="#8b687f" stroke="#8b687f" stroke-width="1.51"/><path d="M1187,230L1234,126L1132,180Z" fill="#96757f" stroke="#96757f" stroke-width="1.51"/><path d="M804,-199L633,-234L696,-4Z" fill="#c6b07f" stroke="#c6b07f" stroke-width="1.51"/><path d="M303,1083L977,1097L674,1076Z" fill="#6e487d" stroke="#6e487d" stroke-width="1.51"/><path d="M851,1073L977,1097L901,945Z" fill="#623d7c" stroke="#623d7c" stroke-width="1.51"/><path d="M633,-234L452,-217L562,-109Z" fill="#d0be7e" stroke="#d0be7e" stroke-width="1.51"/><path d="M264,-60L130,-60L264,126Z" fill="#d4c27e" stroke="#d4c27e" stroke-width="1.51"/><path d="M-233,1141L1256,1114L977,1097Z" fill="#6a457d" stroke="#6a457d" stroke-width="1.51"/><path d="M72,980L239,1083L266,950Z" fill="#8e6b7f" stroke="#8e6b7f" stroke-width="1.51"/><path d="M162,-216L130,-60L264,-60Z" fill="#ddd07d" stroke="#ddd07d" stroke-width="1.51"/><path d="M-50,626L-44,778L53,692Z" fill="#ae9280" stroke="#ae9280" stroke-width="1.51"/><path d="M47,851L72,980L266,950Z" fill="#97757f" stroke="#97757f" stroke-width="1.51"/><path d="M-40,323L-169,382L-44,476Z" fill="#c7b37f" stroke="#c7b37f" stroke-width="1.51"/><path d="M-50,626L-213,679L-44,778Z" fill="#b3987f" stroke="#b3987f" stroke-width="1.51"/><path d="M46,119L-81,265L108,284Z" fill="#cebb7e" stroke="#cebb7e" stroke-width="1.51"/><path d="M-92,75L-81,265L46,119Z" fill="#d6c67d" stroke="#d6c67d" stroke-width="1.51"/><path d="M1253,573L1352,400L1186,367Z" fill="#7e587e" stroke="#7e587e" stroke-width="1.51"/><path d="M1351,571L1352,400L1253,573Z" fill="#75507d" stroke="#75507d" stroke-width="1.51"/><path d="M1253,573L1180,725L1389,690Z" fill="#6c467d" stroke="#6c467d" stroke-width="1.51"/><path d="M1389,690L1180,725L1176,795Z" fill="#68417d" stroke="#68417d" stroke-width="1.51"/><path d="M-75,959L72,980L47,851Z" fill="#9c7c80" stroke="#9c7c80" stroke-width="1.51"/><path d="M1116,944L1219,938L1176,795Z" fill="#5f397c" stroke="#5f397c" stroke-width="1.51"/><path d="M977,1097L1052,1091L901,945Z" fill="#5e387c" stroke="#5e387c" stroke-width="1.51"/><path d="M1256,1114L1219,938L1116,944Z" fill="#542f7b" stroke="#542f7b" stroke-width="1.51"/><path d="M1352,400L1348,256L1186,367Z" fill="#84607f" stroke="#84607f" stroke-width="1.51"/><path d="M1081,-146L893,-248L928,-70Z" fill="#b9a07f" stroke="#b9a07f" stroke-width="1.51"/><path d="M804,-199L893,-248L633,-234Z" fill="#c8b37e" stroke="#c8b37e" stroke-width="1.51"/><path d="M1094,-30L1081,-146L928,-70Z" fill="#b19580" stroke="#b19580" stroke-width="1.51"/><path d="M1215,-48L1081,-146L1094,-30Z" fill="#ab8e80" stroke="#ab8e80" stroke-width="1.51"/><path d="M1215,-48L1118,120L1234,126Z" fill="#9e7e7f" stroke="#9e7e7f" stroke-width="1.51"/><path d="M452,-217L359,-256L264,-60Z" fill="#d9ca7d" stroke="#d9ca7d" stroke-width="1.51"/><path d="M633,-234L359,-256L452,-217Z" fill="#d7c77d" stroke="#d7c77d" stroke-width="1.51"/><path d="M893,-248L359,-256L633,-234Z" fill="#d1be7e" stroke="#d1be7e" stroke-width="1.51"/><path d="M1398,87L1215,-48L1234,126Z" fill="#9a797f" stroke="#9a797f" stroke-width="1.51"/><path d="M72,980L73,1054L239,1083Z" fill="#8e6b7f" stroke="#8e6b7f" stroke-width="1.51"/><path d="M-75,959L73,1054L72,980Z" fill="#977580" stroke="#977580" stroke-width="1.51"/><path d="M-81,265L-169,382L-40,323Z" fill="#cdba7e" stroke="#cdba7e" stroke-width="1.51"/><path d="M-165,228L-169,382L-81,265Z" fill="#d1bf7e" stroke="#d1bf7e" stroke-width="1.51"/><path d="M1351,571L1494,512L1352,400Z" fill="#724d7d" stroke="#724d7d" stroke-width="1.51"/><path d="M1497,175L1398,87L1348,256Z" fill="#8a677f" stroke="#8a677f" stroke-width="1.51"/><path d="M1405,823L1389,690L1176,795Z" fill="#603a7c" stroke="#603a7c" stroke-width="1.51"/><path d="M-25,-55L-92,75L46,119Z" fill="#ddcf7d" stroke="#ddcf7d" stroke-width="1.51"/><path d="M-25,-55L46,119L130,-60Z" fill="#dcce7d" stroke="#dcce7d" stroke-width="1.51"/><path d="M-92,75L-165,228L-81,265Z" fill="#d7c77d" stroke="#d7c77d" stroke-width="1.51"/><path d="M359,-256L162,-216L264,-60Z" fill="#ded17d" stroke="#ded17d" stroke-width="1.51"/><path d="M1219,938L1343,899L1176,795Z" fill="#5c367c" stroke="#5c367c" stroke-width="1.51"/><path d="M1388,1039L1343,899L1219,938Z" fill="#502c7a" stroke="#502c7a" stroke-width="1.51"/><path d="M60,-193L-25,-55L130,-60Z" fill="#e3d77c" stroke="#e3d77c" stroke-width="1.51"/><path d="M-205,810L-75,959L-44,778Z" fill="#a88b80" stroke="#a88b80" stroke-width="1.51"/><path d="M-44,778L-75,959L47,851Z" fill="#a3847f" stroke="#a3847f" stroke-width="1.51"/><path d="M1495,412L1348,256L1352,400Z" fill="#7d587e" stroke="#7d587e" stroke-width="1.51"/><path d="M1343,899L1405,823L1176,795Z" fill="#5b357b" stroke="#5b357b" stroke-width="1.51"/><path d="M-267,517L-50,626L-44,476Z" fill="#bfa77f" stroke="#bfa77f" stroke-width="1.51"/><path d="M-267,517L-44,476L-169,382Z" fill="#c7b17f" stroke="#c7b17f" stroke-width="1.51"/><path d="M1494,512L1351,571L1499,694Z" fill="#67427c" stroke="#67427c" stroke-width="1.51"/><path d="M1348,256L1398,87L1234,126Z" fill="#906e7f" stroke="#906e7f" stroke-width="1.51"/><path d="M1499,694L1351,571L1389,690Z" fill="#643f7c" stroke="#643f7c" stroke-width="1.51"/><path d="M162,-216L60,-193L130,-60Z" fill="#e4d87c" stroke="#e4d87c" stroke-width="1.51"/><path d="M1494,512L1495,412L1352,400Z" fill="#744e7d" stroke="#744e7d" stroke-width="1.51"/><path d="M-165,228L-267,517L-169,382Z" fill="#cebc7e" stroke="#cebc7e" stroke-width="1.51"/><path d="M-92,75L-191,118L-165,228Z" fill="#ddce7d" stroke="#ddce7d" stroke-width="1.51"/><path d="M-261,-4L-191,118L-92,75Z" fill="#e3d87c" stroke="#e3d87c" stroke-width="1.51"/><path d="M-261,-4L-92,75L-25,-55Z" fill="#e4d97c" stroke="#e4d97c" stroke-width="1.51"/><path d="M-191,118L-267,517L-165,228Z" fill="#d5c57e" stroke="#d5c57e" stroke-width="1.51"/><path d="M1380,-50L1170,-221L1215,-48Z" fill="#a78980" stroke="#a78980" stroke-width="1.51"/><path d="M1215,-48L1170,-221L1081,-146Z" fill="#af9280" stroke="#af9280" stroke-width="1.51"/><path d="M1081,-146L1170,-221L893,-248Z" fill="#b99f80" stroke="#b99f80" stroke-width="1.51"/><path d="M-270,950L-205,810L-213,679Z" fill="#b19680" stroke="#b19680" stroke-width="1.51"/><path d="M-213,679L-205,810L-44,778Z" fill="#b29680" stroke="#b29680" stroke-width="1.51"/><path d="M1343,899L1566,961L1405,823Z" fill="#4e2a7a" stroke="#4e2a7a" stroke-width="1.51"/><path d="M1052,1091L1256,1114L1116,944Z" fill="#532e7b" stroke="#532e7b" stroke-width="1.51"/><path d="M977,1097L1256,1114L1052,1091Z" fill="#512d7a" stroke="#512d7a" stroke-width="1.51"/><path d="M-233,1141L977,1097L303,1083Z" fill="#7d587e" stroke="#7d587e" stroke-width="1.51"/><path d="M1494,512L1606,470L1495,412Z" fill="#6d477d" stroke="#6d477d" stroke-width="1.51"/><path d="M1405,823L1499,694L1389,690Z" fill="#5c377b" stroke="#5c377b" stroke-width="1.51"/><path d="M1532,770L1499,694L1405,823Z" fill="#57327b" stroke="#57327b" stroke-width="1.51"/><path d="M239,1083L-233,1141L303,1083Z" fill="#8b687f" stroke="#8b687f" stroke-width="1.51"/><path d="M73,1054L-74,1087L239,1083Z" fill="#8e6c7f" stroke="#8e6c7f" stroke-width="1.51"/><path d="M-75,959L-74,1087L73,1054Z" fill="#97757f" stroke="#97757f" stroke-width="1.51"/><path d="M-270,950L-74,1087L-75,959Z" fill="#a08080" stroke="#a08080" stroke-width="1.51"/><path d="M1398,87L1380,-50L1215,-48Z" fill="#9c7c80" stroke="#9c7c80" stroke-width="1.51"/><path d="M1521,-2L1380,-50L1398,87Z" fill="#95747f" stroke="#95747f" stroke-width="1.51"/><path d="M1495,412L1497,175L1348,256Z" fill="#815c7e" stroke="#815c7e" stroke-width="1.51"/><path d="M1615,377L1497,175L1495,412Z" fill="#79537e" stroke="#79537e" stroke-width="1.51"/><path d="M60,-193L-86,-152L-25,-55Z" fill="#e9df7b" stroke="#e9df7b" stroke-width="1.51"/><path d="M1256,1114L1388,1039L1219,938Z" fill="#4b287a" stroke="#4b287a" stroke-width="1.51"/><path d="M1499,694L1606,470L1494,512Z" fill="#66407c" stroke="#66407c" stroke-width="1.51"/><path d="M1566,961L1532,770L1405,823Z" fill="#4d297a" stroke="#4d297a" stroke-width="1.51"/><path d="M1698,694L1606,470L1499,694Z" fill="#5c377b" stroke="#5c377b" stroke-width="1.51"/><path d="M1606,470L1615,377L1495,412Z" fill="#6e497d" stroke="#6e497d" stroke-width="1.51"/><path d="M1497,175L1538,34L1398,87Z" fill="#8d697f" stroke="#8d697f" stroke-width="1.51"/><path d="M-86,-152L-261,-4L-25,-55Z" fill="#eae07b" stroke="#eae07b" stroke-width="1.51"/><path d="M-191,118L-261,-4L-267,517Z" fill="#dcce7c" stroke="#dcce7c" stroke-width="1.51"/><path d="M-267,517L-270,950L-213,679Z" fill="#b9a07f" stroke="#b9a07f" stroke-width="1.51"/><path d="M-205,810L-270,950L-75,959Z" fill="#a88b7f" stroke="#a88b7f" stroke-width="1.51"/><path d="M1600,88L1538,34L1497,175Z" fill="#89657f" stroke="#89657f" stroke-width="1.51"/><path d="M1380,-50L1422,-230L1170,-221Z" fill="#a88a80" stroke="#a88a80" stroke-width="1.51"/><path d="M1538,34L1521,-2L1398,87Z" fill="#916e7f" stroke="#916e7f" stroke-width="1.51"/><path d="M1615,377L1596,176L1497,175Z" fill="#7d587e" stroke="#7d587e" stroke-width="1.51"/><path d="M-86,-152L-182,-189L-261,-4Z" fill="#efe87a" stroke="#efe87a" stroke-width="1.51"/><path d="M60,-193L-182,-189L-86,-152Z" fill="#eee77a" stroke="#eee77a" stroke-width="1.51"/><path d="M162,-216L-182,-189L60,-193Z" fill="#ece37a" stroke="#ece37a" stroke-width="1.51"/><path d="M359,-256L-182,-189L162,-216Z" fill="#e8de7b" stroke="#e8de7b" stroke-width="1.51"/><path d="M1672,-34L1600,88L1596,176Z" fill="#86637f" stroke="#86637f" stroke-width="1.51"/><path d="M1596,176L1600,88L1497,175Z" fill="#84607f" stroke="#84607f" stroke-width="1.51"/><path d="M1538,34L1672,-34L1521,-2Z" fill="#8f6c7f" stroke="#8f6c7f" stroke-width="1.51"/><path d="M1388,1039L1566,961L1343,899Z" fill="#472479" stroke="#472479" stroke-width="1.51"/><path d="M1532,770L1698,694L1499,694Z" fill="#55307a" stroke="#55307a" stroke-width="1.51"/><path d="M1606,470L1698,694L1615,377Z" fill="#633d7c" stroke="#633d7c" stroke-width="1.51"/><path d="M1503,1116L1566,961L1388,1039Z" fill="#3b1b79" stroke="#3b1b79" stroke-width="1.51"/><path d="M1510,-229L1422,-230L1380,-50Z" fill="#a2837f" stroke="#a2837f" stroke-width="1.51"/><path d="M1170,-221L1422,-230L893,-248Z" fill="#b59a80" stroke="#b59a80" stroke-width="1.51"/><path d="M1510,-229L1380,-50L1521,-2Z" fill="#9b7a80" stroke="#9b7a80" stroke-width="1.51"/><path d="M-270,950L-233,1141L-74,1087Z" fill="#9e7e7f" stroke="#9e7e7f" stroke-width="1.51"/><path d="M-74,1087L-233,1141L239,1083Z" fill="#916f7f" stroke="#916f7f" stroke-width="1.51"/><path d="M1566,961L1661,785L1532,770Z" fill="#492579" stroke="#492579" stroke-width="1.51"/><path d="M1615,377L1672,-34L1596,176Z" fill="#7f5a7e" stroke="#7f5a7e" stroke-width="1.51"/><path d="M1566,961L1710,937L1661,785Z" fill="#3e1d79" stroke="#3e1d79" stroke-width="1.51"/><path d="M1256,1114L1503,1116L1388,1039Z" fill="#3e1d79" stroke="#3e1d79" stroke-width="1.51"/><path d="M-233,1141L1503,1116L1256,1114Z" fill="#603a7c" stroke="#603a7c" stroke-width="1.51"/><path d="M1661,785L1698,694L1532,770Z" fill="#4e2a7a" stroke="#4e2a7a" stroke-width="1.51"/><path d="M1422,-230L1510,-229L893,-248Z" fill="#af937f" stroke="#af937f" stroke-width="1.51"/><path d="M1621,-187L1510,-229L1521,-2Z" fill="#9a7a80" stroke="#9a7a80" stroke-width="1.51"/><path d="M1600,88L1672,-34L1538,34Z" fill="#8b687f" stroke="#8b687f" stroke-width="1.51"/><path d="M1698,694L1672,-34L1615,377Z" fill="#6f497d" stroke="#6f497d" stroke-width="1.51"/><path d="M1698,694L1710,937L1672,-34Z" fill="#5e397c" stroke="#5e397c" stroke-width="1.51"/><path d="M1661,785L1710,937L1698,694Z" fill="#452279" stroke="#452279" stroke-width="1.51"/><path d="M1679,1077L1710,937L1566,961Z" fill="#331578" stroke="#331578" stroke-width="1.51"/><path d="M1672,-34L1621,-187L1521,-2Z" fill="#93707f" stroke="#93707f" stroke-width="1.51"/><path d="M1503,1116L1679,1077L1566,961Z" fill="#311478" stroke="#311478" stroke-width="1.51"/></svg>