<svg xmlns="http://www.w3.org/2000/svg" width="800" height="1024"><path d="M435,500L462,645L499,510Z" fill="#a48580" stroke="#a48580" stroke-width="1.51"/><path d="M435,500L396,618L462,645Z" fill="#a38480" stroke="#a38480" stroke-width="1.51"/><path d="M462,645L565,531L499,510Z" fill="#a98a80" stroke="#a98a80" stroke-width="1.51"/><path d="M396,618L415,684L462,645Z" fill="#a88980" stroke="#a88980" stroke-width="1.51"/><path d="M435,500L317,588L396,618Z" fill="#9d7d80" stroke="#9d7d80" stroke-width="1.51"/><path d="M396,618L286,691L415,684Z" fill="#a38480" stroke="#a38480" stroke-width="1.51"/><path d="M435,500L309,490L317,588Z" fill="#987680" stroke="#987680" stroke-width="1.51"/><path d="M435,500L409,409L309,490Z" fill="#96737f" stroke="#96737f" stroke-width="1.51"/><path d="M499,510L409,409L435,500Z" fill="#9c7c80" stroke="#9c7c80" stroke-width="1.51"/><path d="M541,384L409,409L499,510Z" fill="#9c7c80" stroke="#9c7c80" stroke-width="1.51"/><path d="M462,645L630,607L565,531Z" fill="#af9380" stroke="#af9380" stroke-width="1.51"/><path d="M585,712L630,607L462,645Z" fill="#b59980" stroke="#b59980" stroke-width="1.51"/><path d="M415,684L535,736L462,645Z" fill="#af9380" stroke="#af9380" stroke-width="1.51"/><path d="M535,736L585,712L462,645Z" fill="#b59a80" stroke="#b59a80" stroke-width="1.51"/><path d="M565,531L583,415L499,510Z" fill="#a68880" stroke="#a68880" stroke-width="1.51"/><path d="M746,489L583,415L565,531Z" fill="#ad9180" stroke="#ad9180" stroke-width="1.51"/><path d="M583,415L541,384L499,510Z" fill="#a28380" stroke="#a28380" stroke-width="1.51"/><path d="M317,588L286,691L396,618Z" fill="#9e7e80" stroke="#9e7e80" stroke-width="1.51"/><path d="M415,684L425,811L535,736Z" fill="#b29780" stroke="#b29780" stroke-width="1.51"/><path d="M202,576L286,691L317,588Z" fill="#97757f" stroke="#97757f" stroke-width="1.51"/><path d="M418,291L322,384L409,409Z" fill="#8d6a7f" stroke="#8d6a7f" stroke-width="1.51"/><path d="M409,409L322,384L309,490Z" fill="#8f6c7f" stroke="#8f6c7f" stroke-width="1.51"/><path d="M286,691L425,811L415,684Z" fill="#a98c7f" stroke="#a98c7f" stroke-width="1.51"/><path d="M535,736L567,803L585,712Z" fill="#bca37f" stroke="#bca37f" stroke-width="1.51"/><path d="M154,531L202,576L309,490Z" fill="#8b687f" stroke="#8b687f" stroke-width="1.51"/><path d="M309,490L202,576L317,588Z" fill="#92707f" stroke="#92707f" stroke-width="1.51"/><path d="M425,811L489,825L535,736Z" fill="#b89e80" stroke="#b89e80" stroke-width="1.51"/><path d="M489,825L567,803L535,736Z" fill="#bca380" stroke="#bca380" stroke-width="1.51"/><path d="M729,715L716,617L630,607Z" fill="#c0a87f" stroke="#c0a87f" stroke-width="1.51"/><path d="M630,607L746,489L565,531Z" fill="#b39980" stroke="#b39980" stroke-width="1.51"/><path d="M729,715L630,607L585,712Z" fill="#bea680" stroke="#bea680" stroke-width="1.51"/><path d="M484,281L418,291L409,409Z" fill="#8f6d7f" stroke="#8f6d7f" stroke-width="1.51"/><path d="M484,281L409,409L541,384Z" fill="#96747f" stroke="#96747f" stroke-width="1.51"/><path d="M583,415L634,346L541,384Z" fill="#a28280" stroke="#a28280" stroke-width="1.51"/><path d="M729,421L634,346L583,415Z" fill="#a98b80" stroke="#a98b80" stroke-width="1.51"/><path d="M634,346L484,281L541,384Z" fill="#9b7a7f" stroke="#9b7a7f" stroke-width="1.51"/><path d="M286,691L332,855L425,811Z" fill="#ab8e80" stroke="#ab8e80" stroke-width="1.51"/><path d="M202,576L204,725L286,691Z" fill="#977580" stroke="#977580" stroke-width="1.51"/><path d="M716,617L746,489L630,607Z" fill="#baa180" stroke="#baa180" stroke-width="1.51"/><path d="M173,418L154,531L309,490Z" fill="#86627f" stroke="#86627f" stroke-width="1.51"/><path d="M202,576L131,715L204,725Z" fill="#93717f" stroke="#93717f" stroke-width="1.51"/><path d="M173,418L309,490L322,384Z" fill="#88647f" stroke="#88647f" stroke-width="1.51"/><path d="M693,835L729,715L585,712Z" fill="#c6b07f" stroke="#c6b07f" stroke-width="1.51"/><path d="M716,617L797,638L746,489Z" fill="#c0a97f" stroke="#c0a97f" stroke-width="1.51"/><path d="M425,811L477,915L489,825Z" fill="#baa27f" stroke="#baa27f" stroke-width="1.51"/><path d="M230,819L332,855L286,691Z" fill="#a5877f" stroke="#a5877f" stroke-width="1.51"/><path d="M746,489L729,421L583,415Z" fill="#af9480" stroke="#af9480" stroke-width="1.51"/><path d="M228,307L173,418L322,384Z" fill="#805b7e" stroke="#805b7e" stroke-width="1.51"/><path d="M154,531L127,537L202,576Z" fill="#87637f" stroke="#87637f" stroke-width="1.51"/><path d="M127,405L127,537L154,531Z" fill="#805b7e" stroke="#805b7e" stroke-width="1.51"/><path d="M204,725L230,819L286,691Z" fill="#9e7e7f" stroke="#9e7e7f" stroke-width="1.51"/><path d="M131,715L230,819L204,725Z" fill="#9a797f" stroke="#9a797f" stroke-width="1.51"/><path d="M366,189L271,281L418,291Z" fill="#815c7e" stroke="#815c7e" stroke-width="1.51"/><path d="M418,291L271,281L322,384Z" fill="#85617f" stroke="#85617f" stroke-width="1.51"/><path d="M489,825L599,926L567,803Z" fill="#c3ac7f" stroke="#c3ac7f" stroke-width="1.51"/><path d="M567,803L693,835L585,712Z" fill="#c3ac7f" stroke="#c3ac7f" stroke-width="1.51"/><path d="M413,914L477,915L425,811Z" fill="#bba280" stroke="#bba280" stroke-width="1.51"/><path d="M413,914L425,811L332,855Z" fill="#b59a7f" stroke="#b59a7f" stroke-width="1.51"/><path d="M321,1011L413,914L332,855Z" fill="#b79d7f" stroke="#b79d7f" stroke-width="1.51"/><path d="M729,715L797,638L716,617Z" fill="#c5b07f" stroke="#c5b07f" stroke-width="1.51"/><path d="M746,489L799,470L729,421Z" fill="#b79e7f" stroke="#b79e7f" stroke-width="1.51"/><path d="M271,281L228,307L322,384Z" fill="#805a7e" stroke="#805a7e" stroke-width="1.51"/><path d="M599,926L693,835L567,803Z" fill="#c9b47f" stroke="#c9b47f" stroke-width="1.51"/><path d="M729,715L797,709L797,638Z" fill="#cab67f" stroke="#cab67f" stroke-width="1.51"/><path d="M78,591L131,715L202,576Z" fill="#8b687f" stroke="#8b687f" stroke-width="1.51"/><path d="M797,638L799,470L746,489Z" fill="#bfa77f" stroke="#bfa77f" stroke-width="1.51"/><path d="M729,421L703,295L634,346Z" fill="#a98b7f" stroke="#a98b7f" stroke-width="1.51"/><path d="M876,372L828,370L799,470Z" fill="#baa180" stroke="#baa180" stroke-width="1.51"/><path d="M800,839L797,709L729,715Z" fill="#cfbd7e" stroke="#cfbd7e" stroke-width="1.51"/><path d="M228,307L127,405L173,418Z" fill="#7a557e" stroke="#7a557e" stroke-width="1.51"/><path d="M173,418L127,405L154,531Z" fill="#7e597e" stroke="#7e597e" stroke-width="1.51"/><path d="M573,185L497,194L484,281Z" fill="#8e6c7f" stroke="#8e6c7f" stroke-width="1.51"/><path d="M816,344L703,295L729,421Z" fill="#af9280" stroke="#af9280" stroke-width="1.51"/><path d="M484,281L497,194L418,291Z" fill="#8c697f" stroke="#8c697f" stroke-width="1.51"/><path d="M573,185L484,281L634,346Z" fill="#97757f" stroke="#97757f" stroke-width="1.51"/><path d="M-11,504L78,591L127,537Z" fill="#7d587e" stroke="#7d587e" stroke-width="1.51"/><path d="M127,537L78,591L202,576Z" fill="#86627f" stroke="#86627f" stroke-width="1.51"/><path d="M155,911L261,896L230,819Z" fill="#a68880" stroke="#a68880" stroke-width="1.51"/><path d="M230,819L261,896L332,855Z" fill="#aa8c7f" stroke="#aa8c7f" stroke-width="1.51"/><path d="M531,1023L599,926L477,915Z" fill="#c9b57f" stroke="#c9b57f" stroke-width="1.51"/><path d="M477,915L599,926L489,825Z" fill="#c3ac7f" stroke="#c3ac7f" stroke-width="1.51"/><path d="M497,194L366,189L418,291Z" fill="#86627f" stroke="#86627f" stroke-width="1.51"/><path d="M271,281L206,172L228,307Z" fill="#76507e" stroke="#76507e" stroke-width="1.51"/><path d="M366,189L288,207L271,281Z" fill="#7a557e" stroke="#7a557e" stroke-width="1.51"/><path d="M228,307L54,294L127,405Z" fill="#734d7d" stroke="#734d7d" stroke-width="1.51"/><path d="M673,194L573,185L634,346Z" fill="#9b7a80" stroke="#9b7a80" stroke-width="1.51"/><path d="M497,194L395,117L366,189Z" fill="#805c7f" stroke="#805c7f" stroke-width="1.51"/><path d="M799,470L828,370L729,421Z" fill="#b79d7f" stroke="#b79d7f" stroke-width="1.51"/><path d="M703,295L673,194L634,346Z" fill="#a1827f" stroke="#a1827f" stroke-width="1.51"/><path d="M915,597L799,470L797,638Z" fill="#c6b27f" stroke="#c6b27f" stroke-width="1.51"/><path d="M828,370L816,344L729,421Z" fill="#b49980" stroke="#b49980" stroke-width="1.51"/><path d="M808,183L673,194L703,295Z" fill="#a38380" stroke="#a38380" stroke-width="1.51"/><path d="M950,705L915,597L797,638Z" fill="#d1bf7e" stroke="#d1bf7e" stroke-width="1.51"/><path d="M693,835L800,839L729,715Z" fill="#cfbd7e" stroke="#cfbd7e" stroke-width="1.51"/><path d="M696,937L800,839L693,835Z" fill="#d4c37e" stroke="#d4c37e" stroke-width="1.51"/><path d="M599,926L696,937L693,835Z" fill="#d0be7e" stroke="#d0be7e" stroke-width="1.51"/><path d="M612,1050L696,937L599,926Z" fill="#d3c27e" stroke="#d3c27e" stroke-width="1.51"/><path d="M70,850L155,911L230,819Z" fill="#9f7f80" stroke="#9f7f80" stroke-width="1.51"/><path d="M78,591L32,713L131,715Z" fill="#89667f" stroke="#89667f" stroke-width="1.51"/><path d="M-18,618L32,713L78,591Z" fill="#825d7e" stroke="#825d7e" stroke-width="1.51"/><path d="M413,914L381,1014L477,915Z" fill="#bea680" stroke="#bea680" stroke-width="1.51"/><path d="M321,1011L381,1014L413,914Z" fill="#bca47f" stroke="#bca47f" stroke-width="1.51"/><path d="M321,1011L332,855L261,896Z" fill="#b29680" stroke="#b29680" stroke-width="1.51"/><path d="M70,850L230,819L131,715Z" fill="#99787f" stroke="#99787f" stroke-width="1.51"/><path d="M381,1014L531,1023L477,915Z" fill="#c4af7f" stroke="#c4af7f" stroke-width="1.51"/><path d="M366,189L336,127L288,207Z" fill="#78537e" stroke="#78537e" stroke-width="1.51"/><path d="M472,67L395,117L497,194Z" fill="#815c7e" stroke="#815c7e" stroke-width="1.51"/><path d="M472,67L497,194L573,185Z" fill="#88657f" stroke="#88657f" stroke-width="1.51"/><path d="M950,705L797,638L797,709Z" fill="#d0be7e" stroke="#d0be7e" stroke-width="1.51"/><path d="M395,117L336,127L366,189Z" fill="#79547d" stroke="#79547d" stroke-width="1.51"/><path d="M288,207L206,172L271,281Z" fill="#754f7e" stroke="#754f7e" stroke-width="1.51"/><path d="M579,1124L612,1050L531,1023Z" fill="#d4c47d" stroke="#d4c47d" stroke-width="1.51"/><path d="M158,1011L321,1011L261,896Z" fill="#b09480" stroke="#b09480" stroke-width="1.51"/><path d="M808,183L675,144L673,194Z" fill="#9e7d80" stroke="#9e7d80" stroke-width="1.51"/><path d="M828,370L876,372L816,344Z" fill="#b79e7f" stroke="#b79e7f" stroke-width="1.51"/><path d="M942,532L876,372L799,470Z" fill="#c1ab7f" stroke="#c1ab7f" stroke-width="1.51"/><path d="M336,127L206,172L288,207Z" fill="#734d7d" stroke="#734d7d" stroke-width="1.51"/><path d="M-12,413L-11,504L127,405Z" fill="#714c7d" stroke="#714c7d" stroke-width="1.51"/><path d="M127,405L-11,504L127,537Z" fill="#7a547e" stroke="#7a547e" stroke-width="1.51"/><path d="M32,713L70,850L131,715Z" fill="#906e7f" stroke="#906e7f" stroke-width="1.51"/><path d="M32,713L-28,839L70,850Z" fill="#8e6b7f" stroke="#8e6b7f" stroke-width="1.51"/><path d="M-11,504L-18,618L78,591Z" fill="#7b557e" stroke="#7b557e" stroke-width="1.51"/><path d="M673,194L675,144L573,185Z" fill="#967580" stroke="#967580" stroke-width="1.51"/><path d="M808,183L703,295L816,344Z" fill="#ab8d7f" stroke="#ab8d7f" stroke-width="1.51"/><path d="M70,850L97,896L155,911Z" fill="#9d7d80" stroke="#9d7d80" stroke-width="1.51"/><path d="M155,911L158,1011L261,896Z" fill="#a98b80" stroke="#a98b80" stroke-width="1.51"/><path d="M915,597L942,532L799,470Z" fill="#c8b47f" stroke="#c8b47f" stroke-width="1.51"/><path d="M696,937L824,893L800,839Z" fill="#d9ca7d" stroke="#d9ca7d" stroke-width="1.51"/><path d="M928,804L950,705L797,709Z" fill="#d9c97d" stroke="#d9c97d" stroke-width="1.51"/><path d="M915,597L983,646L942,532Z" fill="#d2c17e" stroke="#d2c17e" stroke-width="1.51"/><path d="M848,1029L824,893L696,937Z" fill="#e0d27c" stroke="#e0d27c" stroke-width="1.51"/><path d="M93,174L54,294L228,307Z" fill="#6b447d" stroke="#6b447d" stroke-width="1.51"/><path d="M-110,521L-105,615L-18,618Z" fill="#724d7d" stroke="#724d7d" stroke-width="1.51"/><path d="M54,294L-12,413L127,405Z" fill="#6e487d" stroke="#6e487d" stroke-width="1.51"/><path d="M876,372L883,307L816,344Z" fill="#b79d7f" stroke="#b79d7f" stroke-width="1.51"/><path d="M1001,374L883,307L876,372Z" fill="#bea57f" stroke="#bea57f" stroke-width="1.51"/><path d="M433,1085L531,1023L381,1014Z" fill="#c8b37f" stroke="#c8b37f" stroke-width="1.51"/><path d="M531,1023L612,1050L599,926Z" fill="#d1be7e" stroke="#d1be7e" stroke-width="1.51"/><path d="M641,64L472,67L573,185Z" fill="#89667f" stroke="#89667f" stroke-width="1.51"/><path d="M395,117L316,27L336,127Z" fill="#734e7d" stroke="#734e7d" stroke-width="1.51"/><path d="M316,27L164,139L206,172Z" fill="#69427d" stroke="#69427d" stroke-width="1.51"/><path d="M928,804L797,709L800,839Z" fill="#d7c77e" stroke="#d7c77e" stroke-width="1.51"/><path d="M307,1140L433,1085L381,1014Z" fill="#c4ae7f" stroke="#c4ae7f" stroke-width="1.51"/><path d="M307,1140L381,1014L321,1011Z" fill="#bfa77f" stroke="#bfa77f" stroke-width="1.51"/><path d="M316,27L206,172L336,127Z" fill="#6e497d" stroke="#6e497d" stroke-width="1.51"/><path d="M206,172L93,174L228,307Z" fill="#6d467d" stroke="#6d467d" stroke-width="1.51"/><path d="M675,144L641,64L573,185Z" fill="#92707f" stroke="#92707f" stroke-width="1.51"/><path d="M883,307L808,183L816,344Z" fill="#b09580" stroke="#b09580" stroke-width="1.51"/><path d="M824,893L928,804L800,839Z" fill="#ddcf7c" stroke="#ddcf7c" stroke-width="1.51"/><path d="M6,176L10,284L54,294Z" fill="#5f397c" stroke="#5f397c" stroke-width="1.51"/><path d="M54,294L10,284L-12,413Z" fill="#65407c" stroke="#65407c" stroke-width="1.51"/><path d="M942,532L1001,374L876,372Z" fill="#c5af7f" stroke="#c5af7f" stroke-width="1.51"/><path d="M950,705L983,646L915,597Z" fill="#d7c77e" stroke="#d7c77e" stroke-width="1.51"/><path d="M1010,744L983,646L950,705Z" fill="#dbce7c" stroke="#dbce7c" stroke-width="1.51"/><path d="M109,984L158,1011L155,911Z" fill="#a6887f" stroke="#a6887f" stroke-width="1.51"/><path d="M109,984L155,911L97,896Z" fill="#a18280" stroke="#a18280" stroke-width="1.51"/><path d="M164,139L93,174L206,172Z" fill="#653f7d" stroke="#653f7d" stroke-width="1.51"/><path d="M727,36L641,64L675,144Z" fill="#93717f" stroke="#93717f" stroke-width="1.51"/><path d="M16,957L109,984L97,896Z" fill="#9f7f80" stroke="#9f7f80" stroke-width="1.51"/><path d="M16,957L97,896L70,850Z" fill="#9a797f" stroke="#9a797f" stroke-width="1.51"/><path d="M824,893L937,914L928,804Z" fill="#e2d77c" stroke="#e2d77c" stroke-width="1.51"/><path d="M612,1050L695,1059L696,937Z" fill="#d9ca7d" stroke="#d9ca7d" stroke-width="1.51"/><path d="M579,1124L695,1059L612,1050Z" fill="#dacc7d" stroke="#dacc7d" stroke-width="1.51"/><path d="M-151,713L32,713L-18,618Z" fill="#7e587e" stroke="#7e587e" stroke-width="1.51"/><path d="M-151,713L-28,839L32,713Z" fill="#845f7e" stroke="#845f7e" stroke-width="1.51"/><path d="M128,1123L236,1087L158,1011Z" fill="#b29680" stroke="#b29680" stroke-width="1.51"/><path d="M158,1011L236,1087L321,1011Z" fill="#b59a80" stroke="#b59a80" stroke-width="1.51"/><path d="M394,-6L316,27L395,117Z" fill="#724b7d" stroke="#724b7d" stroke-width="1.51"/><path d="M164,139L93,121L93,174Z" fill="#5f3a7c" stroke="#5f3a7c" stroke-width="1.51"/><path d="M394,-6L395,117L472,67Z" fill="#77527e" stroke="#77527e" stroke-width="1.51"/><path d="M-110,521L-18,618L-11,504Z" fill="#724d7d" stroke="#724d7d" stroke-width="1.51"/><path d="M-110,521L-11,504L-12,413Z" fill="#6c477c" stroke="#6c477c" stroke-width="1.51"/><path d="M503,1163L579,1124L531,1023Z" fill="#d4c37e" stroke="#d4c37e" stroke-width="1.51"/><path d="M503,1163L531,1023L433,1085Z" fill="#cfbd7e" stroke="#cfbd7e" stroke-width="1.51"/><path d="M-149,406L-110,521L-12,413Z" fill="#653f7c" stroke="#653f7c" stroke-width="1.51"/><path d="M641,64L544,-18L472,67Z" fill="#835e7e" stroke="#835e7e" stroke-width="1.51"/><path d="M727,36L632,21L641,64Z" fill="#8e6b7f" stroke="#8e6b7f" stroke-width="1.51"/><path d="M75,29L93,121L164,139Z" fill="#5a347b" stroke="#5a347b" stroke-width="1.51"/><path d="M93,174L6,176L54,294Z" fill="#5f397c" stroke="#5f397c" stroke-width="1.51"/><path d="M883,307L869,163L808,183Z" fill="#ae9180" stroke="#ae9180" stroke-width="1.51"/><path d="M1050,497L1001,374L942,532Z" fill="#cab67e" stroke="#cab67e" stroke-width="1.51"/><path d="M928,804L1010,744L950,705Z" fill="#dfd37c" stroke="#dfd37c" stroke-width="1.51"/><path d="M983,646L1050,497L942,532Z" fill="#d1bf7e" stroke="#d1bf7e" stroke-width="1.51"/><path d="M1031,848L1010,744L928,804Z" fill="#e3d77c" stroke="#e3d77c" stroke-width="1.51"/><path d="M808,183L727,36L675,144Z" fill="#9b7b7f" stroke="#9b7b7f" stroke-width="1.51"/><path d="M1033,192L869,163L883,307Z" fill="#b49980" stroke="#b49980" stroke-width="1.51"/><path d="M194,-42L75,29L164,139Z" fill="#59347b" stroke="#59347b" stroke-width="1.51"/><path d="M544,-18L394,-6L472,67Z" fill="#79547e" stroke="#79547e" stroke-width="1.51"/><path d="M109,984L128,1123L158,1011Z" fill="#ab8e7f" stroke="#ab8e7f" stroke-width="1.51"/><path d="M-28,839L16,957L70,850Z" fill="#947280" stroke="#947280" stroke-width="1.51"/><path d="M236,1087L307,1140L321,1011Z" fill="#bca37f" stroke="#bca37f" stroke-width="1.51"/><path d="M128,1123L307,1140L236,1087Z" fill="#b9a080" stroke="#b9a080" stroke-width="1.51"/><path d="M848,1029L937,914L824,893Z" fill="#e6db7c" stroke="#e6db7c" stroke-width="1.51"/><path d="M307,1140L503,1163L433,1085Z" fill="#cbb77f" stroke="#cbb77f" stroke-width="1.51"/><path d="M632,21L544,-18L641,64Z" fill="#87637f" stroke="#87637f" stroke-width="1.51"/><path d="M-76,200L-79,310L10,284Z" fill="#58337b" stroke="#58337b" stroke-width="1.51"/><path d="M10,284L-79,310L-12,413Z" fill="#613c7c" stroke="#613c7c" stroke-width="1.51"/><path d="M1010,744L1050,497L983,646Z" fill="#d6c67e" stroke="#d6c67e" stroke-width="1.51"/><path d="M93,121L6,176L93,174Z" fill="#5b357c" stroke="#5b357c" stroke-width="1.51"/><path d="M632,21L615,-85L544,-18Z" fill="#825d7e" stroke="#825d7e" stroke-width="1.51"/><path d="M824,60L727,36L808,183Z" fill="#9d7e7f" stroke="#9d7e7f" stroke-width="1.51"/><path d="M695,1059L848,1029L696,937Z" fill="#e0d37c" stroke="#e0d37c" stroke-width="1.51"/><path d="M803,1139L848,1029L695,1059Z" fill="#e8de7b" stroke="#e8de7b" stroke-width="1.51"/><path d="M722,1144L695,1059L579,1124Z" fill="#e0d47c" stroke="#e0d47c" stroke-width="1.51"/><path d="M-105,615L-151,713L-18,618Z" fill="#76517e" stroke="#76517e" stroke-width="1.51"/><path d="M-28,839L-122,955L16,957Z" fill="#916f7f" stroke="#916f7f" stroke-width="1.51"/><path d="M-110,521L-151,713L-105,615Z" fill="#704b7d" stroke="#704b7d" stroke-width="1.51"/><path d="M-149,406L-151,713L-110,521Z" fill="#69437d" stroke="#69437d" stroke-width="1.51"/><path d="M869,163L872,101L808,183Z" fill="#a88a7f" stroke="#a88a7f" stroke-width="1.51"/><path d="M989,113L872,101L869,163Z" fill="#ac8f80" stroke="#ac8f80" stroke-width="1.51"/><path d="M1001,374L1020,295L883,307Z" fill="#bfa87f" stroke="#bfa87f" stroke-width="1.51"/><path d="M1050,497L1020,295L1001,374Z" fill="#c4ae7f" stroke="#c4ae7f" stroke-width="1.51"/><path d="M-79,310L-149,406L-12,413Z" fill="#5f3a7c" stroke="#5f3a7c" stroke-width="1.51"/><path d="M-76,200L-149,406L-79,310Z" fill="#56317b" stroke="#56317b" stroke-width="1.51"/><path d="M872,101L824,60L808,183Z" fill="#a48580" stroke="#a48580" stroke-width="1.51"/><path d="M680,-111L615,-85L632,21Z" fill="#845f7e" stroke="#845f7e" stroke-width="1.51"/><path d="M503,1163L722,1144L579,1124Z" fill="#ddcf7c" stroke="#ddcf7c" stroke-width="1.51"/><path d="M1010,744L1031,848L1050,497Z" fill="#dbcd7d" stroke="#dbcd7d" stroke-width="1.51"/><path d="M937,914L1031,848L928,804Z" fill="#e7de7b" stroke="#e7de7b" stroke-width="1.51"/><path d="M986,950L1031,848L937,914Z" fill="#ebe37a" stroke="#ebe37a" stroke-width="1.51"/><path d="M307,1140L-5,1162L503,1163Z" fill="#c1a97f" stroke="#c1a97f" stroke-width="1.51"/><path d="M-47,1038L128,1123L109,984Z" fill="#a58780" stroke="#a58780" stroke-width="1.51"/><path d="M-47,1038L109,984L16,957Z" fill="#9e7e80" stroke="#9e7e80" stroke-width="1.51"/><path d="M-151,713L-125,850L-28,839Z" fill="#825e7f" stroke="#825e7f" stroke-width="1.51"/><path d="M848,1029L918,1022L937,914Z" fill="#ece47b" stroke="#ece47b" stroke-width="1.51"/><path d="M891,1122L918,1022L848,1029Z" fill="#efe97a" stroke="#efe97a" stroke-width="1.51"/><path d="M394,-6L310,-90L316,27Z" fill="#68437c" stroke="#68437c" stroke-width="1.51"/><path d="M-95,122L-76,200L6,176Z" fill="#4e2a7a" stroke="#4e2a7a" stroke-width="1.51"/><path d="M544,-18L391,-71L394,-6Z" fill="#724d7d" stroke="#724d7d" stroke-width="1.51"/><path d="M515,-131L391,-71L544,-18Z" fill="#734d7d" stroke="#734d7d" stroke-width="1.51"/><path d="M6,176L-76,200L10,284Z" fill="#57327b" stroke="#57327b" stroke-width="1.51"/><path d="M10,70L6,176L93,121Z" fill="#542f7b" stroke="#542f7b" stroke-width="1.51"/><path d="M918,1022L986,950L937,914Z" fill="#eee67a" stroke="#eee67a" stroke-width="1.51"/><path d="M194,-42L164,139L316,27Z" fill="#623c7c" stroke="#623c7c" stroke-width="1.51"/><path d="M986,1134L803,1139L722,1144Z" fill="#f1eb79" stroke="#f1eb79" stroke-width="1.51"/><path d="M722,1144L803,1139L695,1059Z" fill="#e7dd7b" stroke="#e7dd7b" stroke-width="1.51"/><path d="M310,-90L194,-42L316,27Z" fill="#603a7c" stroke="#603a7c" stroke-width="1.51"/><path d="M75,29L10,70L93,121Z" fill="#522e7b" stroke="#522e7b" stroke-width="1.51"/><path d="M680,-111L632,21L727,36Z" fill="#8b677f" stroke="#8b677f" stroke-width="1.51"/><path d="M391,-71L310,-90L394,-6Z" fill="#68427c" stroke="#68427c" stroke-width="1.51"/><path d="M515,-131L310,-90L391,-71Z" fill="#69437c" stroke="#69437c" stroke-width="1.51"/><path d="M-78,1023L-47,1038L16,957Z" fill="#99777f" stroke="#99777f" stroke-width="1.51"/><path d="M1020,295L1033,192L883,307Z" fill="#bba27f" stroke="#bba27f" stroke-width="1.51"/><path d="M923,14L792,-39L824,60Z" fill="#9d7c7f" stroke="#9d7c7f" stroke-width="1.51"/><path d="M824,60L792,-39L727,36Z" fill="#97767f" stroke="#97767f" stroke-width="1.51"/><path d="M1050,497L1033,192L1020,295Z" fill="#c0a87f" stroke="#c0a87f" stroke-width="1.51"/><path d="M986,950L998,1003L1031,848Z" fill="#ede67a" stroke="#ede67a" stroke-width="1.51"/><path d="M918,1022L998,1003L986,950Z" fill="#f2eb79" stroke="#f2eb79" stroke-width="1.51"/><path d="M986,1134L998,1003L918,1022Z" fill="#f6f278" stroke="#f6f278" stroke-width="1.51"/><path d="M-125,850L-122,955L-28,839Z" fill="#8a667f" stroke="#8a667f" stroke-width="1.51"/><path d="M-151,713L-122,955L-125,850Z" fill="#835e7e" stroke="#835e7e" stroke-width="1.51"/><path d="M923,14L824,60L872,101Z" fill="#a38480" stroke="#a38480" stroke-width="1.51"/><path d="M-122,955L-78,1023L16,957Z" fill="#95737f" stroke="#95737f" stroke-width="1.51"/><path d="M-47,1038L-5,1162L128,1123Z" fill="#a6887f" stroke="#a6887f" stroke-width="1.51"/><path d="M803,1139L891,1122L848,1029Z" fill="#efe87a" stroke="#efe87a" stroke-width="1.51"/><path d="M1033,192L989,113L869,163Z" fill="#b39880" stroke="#b39880" stroke-width="1.51"/><path d="M615,-85L515,-131L544,-18Z" fill="#7a557e" stroke="#7a557e" stroke-width="1.51"/><path d="M680,-111L515,-131L615,-85Z" fill="#7c577e" stroke="#7c577e" stroke-width="1.51"/><path d="M-144,35L-95,122L10,70Z" fill="#412079" stroke="#412079" stroke-width="1.51"/><path d="M10,70L-95,122L6,176Z" fill="#4d297a" stroke="#4d297a" stroke-width="1.51"/><path d="M-76,200L-95,122L-149,406Z" fill="#4f2b7a" stroke="#4f2b7a" stroke-width="1.51"/><path d="M13,-39L10,70L75,29Z" fill="#49267a" stroke="#49267a" stroke-width="1.51"/><path d="M792,-39L680,-111L727,36Z" fill="#8f6b7f" stroke="#8f6b7f" stroke-width="1.51"/><path d="M792,-39L836,-94L680,-111Z" fill="#8e6c7f" stroke="#8e6c7f" stroke-width="1.51"/><path d="M989,113L923,14L872,101Z" fill="#a98c80" stroke="#a98c80" stroke-width="1.51"/><path d="M79,-84L13,-39L75,29Z" fill="#47247a" stroke="#47247a" stroke-width="1.51"/><path d="M310,-90L211,-113L194,-42Z" fill="#58337b" stroke="#58337b" stroke-width="1.51"/><path d="M515,-131L211,-113L310,-90Z" fill="#613b7c" stroke="#613b7c" stroke-width="1.51"/><path d="M-126,1116L-47,1038L-78,1023Z" fill="#99777f" stroke="#99777f" stroke-width="1.51"/><path d="M-126,1116L-5,1162L-47,1038Z" fill="#9e7f80" stroke="#9e7f80" stroke-width="1.51"/><path d="M128,1123L-5,1162L307,1140Z" fill="#b4997f" stroke="#b4997f" stroke-width="1.51"/><path d="M79,-84L75,29L194,-42Z" fill="#4e2a7a" stroke="#4e2a7a" stroke-width="1.51"/><path d="M211,-113L79,-84L194,-42Z" fill="#4f2b7a" stroke="#4f2b7a" stroke-width="1.51"/><path d="M887,-95L836,-94L792,-39Z" fill="#95737f" stroke="#95737f" stroke-width="1.51"/><path d="M680,-111L1034,-130L515,-131Z" fill="#88647f" stroke="#88647f" stroke-width="1.51"/><path d="M923,14L887,-95L792,-39Z" fill="#9b7a80" stroke="#9b7a80" stroke-width="1.51"/><path d="M989,113L1018,40L923,14Z" fill="#ab8e80" stroke="#ab8e80" stroke-width="1.51"/><path d="M1033,192L1018,40L989,113Z" fill="#b09480" stroke="#b09480" stroke-width="1.51"/><path d="M803,1139L986,1134L891,1122Z" fill="#f6f179" stroke="#f6f179" stroke-width="1.51"/><path d="M891,1122L986,1134L918,1022Z" fill="#f6f278" stroke="#f6f278" stroke-width="1.51"/><path d="M998,1003L986,1134L1031,848Z" fill="#f2ec79" stroke="#f2ec79" stroke-width="1.51"/><path d="M503,1163L986,1134L722,1144Z" fill="#e9e07b" stroke="#e9e07b" stroke-width="1.51"/><path d="M1034,-130L887,-95L923,14Z" fill="#9f8080" stroke="#9f8080" stroke-width="1.51"/><path d="M836,-94L1034,-130L680,-111Z" fill="#93717f" stroke="#93717f" stroke-width="1.51"/><path d="M-122,955L-126,1116L-78,1023Z" fill="#947380" stroke="#947380" stroke-width="1.51"/><path d="M-151,713L-126,1116L-122,955Z" fill="#89667f" stroke="#89667f" stroke-width="1.51"/><path d="M13,-39L-144,35L10,70Z" fill="#401f79" stroke="#401f79" stroke-width="1.51"/><path d="M79,-84L-16,-80L13,-39Z" fill="#3e1d79" stroke="#3e1d79" stroke-width="1.51"/><path d="M-88,-96L-16,-80L79,-84Z" fill="#371778" stroke="#371778" stroke-width="1.51"/><path d="M-88,-96L-144,35L13,-39Z" fill="#341678" stroke="#341678" stroke-width="1.51"/><path d="M-95,122L-144,35L-149,406Z" fill="#462479" stroke="#462479" stroke-width="1.51"/><path d="M-16,-80L-88,-96L13,-39Z" fill="#361778" stroke="#361778" stroke-width="1.51"/><path d="M211,-113L-88,-96L79,-84Z" fill="#401f79" stroke="#401f79" stroke-width="1.51"/><path d="M515,-131L-88,-96L211,-113Z" fill="#512d7b" stroke="#512d7b" stroke-width="1.51"/><path d="M1018,40L1034,-130L923,14Z" fill="#a58680" stroke="#a58680" stroke-width="1.51"/><path d="M887,-95L1034,-130L836,-94Z" fill="#9a797f" stroke="#9a797f" stroke-width="1.51"/><path d="M1033,192L1034,-130L1018,40Z" fill="#a98c80" stroke="#a98c80" stroke-width="1.51"/><path d="M1050,497L1034,-130L1033,192Z" fill="#b59a80" stroke="#b59a80" stroke-width="1.51"/></svg>