<svg xmlns="http://www.w3.org/2000/svg" width="1440" height="900"><path d="M661,397L559,412L635,567Z" fill="#96747f" stroke="#96747f" stroke-width="1.51"/><path d="M559,412L490,525L635,567Z" fill="#967480" stroke="#967480" stroke-width="1.51"/><path d="M635,567L811,512L661,397Z" fill="#9d7c80" stroke="#9d7c80" stroke-width="1.51"/><path d="M467,630L639,658L635,567Z" fill="#a08080" stroke="#a08080" stroke-width="1.51"/><path d="M766,652L811,512L635,567Z" fill="#a58680" stroke="#a58680" stroke-width="1.51"/><path d="M490,525L467,630L635,567Z" fill="#9a7980" stroke="#9a7980" stroke-width="1.51"/><path d="M661,397L530,272L559,412Z" fill="#8d697f" stroke="#8d697f" stroke-width="1.51"/><path d="M559,412L329,390L490,525Z" fill="#8c697f" stroke="#8c697f" stroke-width="1.51"/><path d="M490,525L370,612L467,630Z" fill="#96757f" stroke="#96757f" stroke-width="1.51"/><path d="M682,215L530,272L661,397Z" fill="#8a667f" stroke="#8a667f" stroke-width="1.51"/><path d="M639,658L766,652L635,567Z" fill="#a58780" stroke="#a58780" stroke-width="1.51"/><path d="M811,512L827,367L661,397Z" fill="#9b7b80" stroke="#9b7b80" stroke-width="1.51"/><path d="M827,367L682,215L661,397Z" fill="#926f7f" stroke="#926f7f" stroke-width="1.51"/><path d="M811,512L931,375L827,367Z" fill="#a07f80" stroke="#a07f80" stroke-width="1.51"/><path d="M766,652L880,565L811,512Z" fill="#a98b80" stroke="#a98b80" stroke-width="1.51"/><path d="M302,549L370,612L490,525Z" fill="#926f80" stroke="#926f80" stroke-width="1.51"/><path d="M530,272L329,390L559,412Z" fill="#87637f" stroke="#87637f" stroke-width="1.51"/><path d="M372,822L539,774L467,630Z" fill="#a28380" stroke="#a28380" stroke-width="1.51"/><path d="M467,630L539,774L639,658Z" fill="#a28480" stroke="#a28480" stroke-width="1.51"/><path d="M641,830L838,752L766,652Z" fill="#b29680" stroke="#b29680" stroke-width="1.51"/><path d="M530,272L406,233L329,390Z" fill="#805a7e" stroke="#805a7e" stroke-width="1.51"/><path d="M522,108L406,233L530,272Z" fill="#7c567e" stroke="#7c567e" stroke-width="1.51"/><path d="M329,390L302,549L490,525Z" fill="#8b687f" stroke="#8b687f" stroke-width="1.51"/><path d="M370,612L372,822L467,630Z" fill="#9c7b80" stroke="#9c7b80" stroke-width="1.51"/><path d="M880,565L931,375L811,512Z" fill="#a58680" stroke="#a58680" stroke-width="1.51"/><path d="M827,367L813,188L682,215Z" fill="#8f6d7f" stroke="#8f6d7f" stroke-width="1.51"/><path d="M931,375L813,188L827,367Z" fill="#987680" stroke="#987680" stroke-width="1.51"/><path d="M682,215L522,108L530,272Z" fill="#815b7e" stroke="#815b7e" stroke-width="1.51"/><path d="M766,652L838,752L880,565Z" fill="#af9380" stroke="#af9380" stroke-width="1.51"/><path d="M1121,576L1036,350L931,375Z" fill="#a98c7f" stroke="#a98c7f" stroke-width="1.51"/><path d="M641,830L766,652L639,658Z" fill="#ac8f7f" stroke="#ac8f7f" stroke-width="1.51"/><path d="M539,774L641,830L639,658Z" fill="#ab8d80" stroke="#ab8d80" stroke-width="1.51"/><path d="M329,390L270,376L302,549Z" fill="#845f7e" stroke="#845f7e" stroke-width="1.51"/><path d="M406,233L270,376L329,390Z" fill="#7d587e" stroke="#7d587e" stroke-width="1.51"/><path d="M596,54L522,108L682,215Z" fill="#7c577e" stroke="#7c577e" stroke-width="1.51"/><path d="M406,233L195,201L270,376Z" fill="#76507e" stroke="#76507e" stroke-width="1.51"/><path d="M813,188L786,96L682,215Z" fill="#88647f" stroke="#88647f" stroke-width="1.51"/><path d="M910,53L786,96L813,188Z" fill="#88647f" stroke="#88647f" stroke-width="1.51"/><path d="M838,752L982,693L880,565Z" fill="#b49980" stroke="#b49980" stroke-width="1.51"/><path d="M786,96L596,54L682,215Z" fill="#805c7e" stroke="#805c7e" stroke-width="1.51"/><path d="M239,753L372,822L370,612Z" fill="#9a7a7f" stroke="#9a7a7f" stroke-width="1.51"/><path d="M520,923L600,932L641,830Z" fill="#b49880" stroke="#b49880" stroke-width="1.51"/><path d="M302,549L222,630L370,612Z" fill="#906d7f" stroke="#906d7f" stroke-width="1.51"/><path d="M184,566L222,630L302,549Z" fill="#8b677f" stroke="#8b677f" stroke-width="1.51"/><path d="M931,375L990,199L813,188Z" fill="#96757f" stroke="#96757f" stroke-width="1.51"/><path d="M1121,576L931,375L880,565Z" fill="#ac8f80" stroke="#ac8f80" stroke-width="1.51"/><path d="M270,376L184,566L302,549Z" fill="#85617f" stroke="#85617f" stroke-width="1.51"/><path d="M810,914L918,818L838,752Z" fill="#bda47f" stroke="#bda47f" stroke-width="1.51"/><path d="M838,752L918,818L982,693Z" fill="#baa180" stroke="#baa180" stroke-width="1.51"/><path d="M520,923L641,830L539,774Z" fill="#af9380" stroke="#af9380" stroke-width="1.51"/><path d="M641,830L810,914L838,752Z" fill="#b89f80" stroke="#b89f80" stroke-width="1.51"/><path d="M372,822L520,923L539,774Z" fill="#aa8d80" stroke="#aa8d80" stroke-width="1.51"/><path d="M1036,350L990,199L931,375Z" fill="#9e7e80" stroke="#9e7e80" stroke-width="1.51"/><path d="M372,822L409,954L520,923Z" fill="#ac8f80" stroke="#ac8f80" stroke-width="1.51"/><path d="M222,630L239,753L370,612Z" fill="#93717f" stroke="#93717f" stroke-width="1.51"/><path d="M53,692L239,753L222,630Z" fill="#8f6d7f" stroke="#8f6d7f" stroke-width="1.51"/><path d="M1024,837L1049,674L982,693Z" fill="#bea67f" stroke="#bea67f" stroke-width="1.51"/><path d="M982,693L1049,674L880,565Z" fill="#b59b80" stroke="#b59b80" stroke-width="1.51"/><path d="M600,932L810,914L641,830Z" fill="#b89f7f" stroke="#b89f7f" stroke-width="1.51"/><path d="M786,96L696,-4L596,54Z" fill="#7b567e" stroke="#7b567e" stroke-width="1.51"/><path d="M841,-71L696,-4L786,96Z" fill="#7c577e" stroke="#7c577e" stroke-width="1.51"/><path d="M562,-109L376,44L522,108Z" fill="#6d477d" stroke="#6d477d" stroke-width="1.51"/><path d="M522,108L376,44L406,233Z" fill="#734d7d" stroke="#734d7d" stroke-width="1.51"/><path d="M270,376L20,397L184,566Z" fill="#7c577e" stroke="#7c577e" stroke-width="1.51"/><path d="M317,-2L376,44L452,-217Z" fill="#603b7c" stroke="#603b7c" stroke-width="1.51"/><path d="M376,44L264,126L406,233Z" fill="#6e487d" stroke="#6e487d" stroke-width="1.51"/><path d="M264,126L195,201L406,233Z" fill="#6f497d" stroke="#6f497d" stroke-width="1.51"/><path d="M1049,674L1121,576L880,565Z" fill="#b59a80" stroke="#b59a80" stroke-width="1.51"/><path d="M1036,350L1132,180L990,199Z" fill="#9d7c7f" stroke="#9d7c7f" stroke-width="1.51"/><path d="M990,199L910,53L813,188Z" fill="#8e6b7f" stroke="#8e6b7f" stroke-width="1.51"/><path d="M851,1073L901,945L810,914Z" fill="#c7b27f" stroke="#c7b27f" stroke-width="1.51"/><path d="M520,923L531,1062L600,932Z" fill="#b89d80" stroke="#b89d80" stroke-width="1.51"/><path d="M266,950L409,954L372,822Z" fill="#a88b80" stroke="#a88b80" stroke-width="1.51"/><path d="M918,818L1024,837L982,693Z" fill="#c0a880" stroke="#c0a880" stroke-width="1.51"/><path d="M1049,674L1180,725L1121,576Z" fill="#bea67f" stroke="#bea67f" stroke-width="1.51"/><path d="M901,945L1024,837L918,818Z" fill="#c4ae7f" stroke="#c4ae7f" stroke-width="1.51"/><path d="M674,1076L810,914L600,932Z" fill="#bfa77f" stroke="#bfa77f" stroke-width="1.51"/><path d="M810,914L901,945L918,818Z" fill="#c2ac7f" stroke="#c2ac7f" stroke-width="1.51"/><path d="M46,119L108,284L195,201Z" fill="#66407c" stroke="#66407c" stroke-width="1.51"/><path d="M195,201L108,284L270,376Z" fill="#724c7d" stroke="#724c7d" stroke-width="1.51"/><path d="M184,566L79,573L222,630Z" fill="#87647f" stroke="#87647f" stroke-width="1.51"/><path d="M239,753L266,950L372,822Z" fill="#a18180" stroke="#a18180" stroke-width="1.51"/><path d="M20,397L79,573L184,566Z" fill="#7e597e" stroke="#7e597e" stroke-width="1.51"/><path d="M264,126L46,119L195,201Z" fill="#653f7c" stroke="#653f7c" stroke-width="1.51"/><path d="M376,44L317,-2L264,126Z" fill="#66407c" stroke="#66407c" stroke-width="1.51"/><path d="M562,-109L522,108L596,54Z" fill="#714b7d" stroke="#714b7d" stroke-width="1.51"/><path d="M1121,576L1186,367L1036,350Z" fill="#ae917f" stroke="#ae917f" stroke-width="1.51"/><path d="M990,199L1118,120L910,53Z" fill="#916f7f" stroke="#916f7f" stroke-width="1.51"/><path d="M696,-4L562,-109L596,54Z" fill="#714c7d" stroke="#714c7d" stroke-width="1.51"/><path d="M633,-234L562,-109L696,-4Z" fill="#6a457c" stroke="#6a457c" stroke-width="1.51"/><path d="M47,851L266,950L239,753Z" fill="#9c7b80" stroke="#9c7b80" stroke-width="1.51"/><path d="M409,954L531,1062L520,923Z" fill="#b59a7f" stroke="#b59a7f" stroke-width="1.51"/><path d="M303,1083L531,1062L409,954Z" fill="#b59b80" stroke="#b59b80" stroke-width="1.51"/><path d="M910,53L841,-71L786,96Z" fill="#825e7f" stroke="#825e7f" stroke-width="1.51"/><path d="M928,-70L841,-71L910,53Z" fill="#805c7e" stroke="#805c7e" stroke-width="1.51"/><path d="M1187,230L1132,180L1036,350Z" fill="#a18280" stroke="#a18280" stroke-width="1.51"/><path d="M531,1062L674,1076L600,932Z" fill="#bda57f" stroke="#bda57f" stroke-width="1.51"/><path d="M108,284L20,397L270,376Z" fill="#734e7d" stroke="#734e7d" stroke-width="1.51"/><path d="M-40,323L20,397L108,284Z" fill="#6c467d" stroke="#6c467d" stroke-width="1.51"/><path d="M79,573L53,692L222,630Z" fill="#89657f" stroke="#89657f" stroke-width="1.51"/><path d="M-50,626L53,692L79,573Z" fill="#835f7f" stroke="#835f7f" stroke-width="1.51"/><path d="M1121,576L1253,573L1186,367Z" fill="#b79d80" stroke="#b79d80" stroke-width="1.51"/><path d="M1176,795L1180,725L1049,674Z" fill="#c4ad7f" stroke="#c4ad7f" stroke-width="1.51"/><path d="M1176,795L1049,674L1024,837Z" fill="#c4ad7f" stroke="#c4ad7f" stroke-width="1.51"/><path d="M1132,180L1118,120L990,199Z" fill="#98787f" stroke="#98787f" stroke-width="1.51"/><path d="M1234,126L1118,120L1132,180Z" fill="#9b7b80" stroke="#9b7b80" stroke-width="1.51"/><path d="M1186,367L1187,230L1036,350Z" fill="#a78880" stroke="#a78880" stroke-width="1.51"/><path d="M1094,-30L928,-70L910,53Z" fill="#86627f" stroke="#86627f" stroke-width="1.51"/><path d="M841,-71L804,-199L696,-4Z" fill="#754f7e" stroke="#754f7e" stroke-width="1.51"/><path d="M674,1076L851,1073L810,914Z" fill="#c7b07f" stroke="#c7b07f" stroke-width="1.51"/><path d="M901,945L1116,944L1024,837Z" fill="#cab67e" stroke="#cab67e" stroke-width="1.51"/><path d="M1180,725L1253,573L1121,576Z" fill="#bfa780" stroke="#bfa780" stroke-width="1.51"/><path d="M1348,256L1234,126L1187,230Z" fill="#a4867f" stroke="#a4867f" stroke-width="1.51"/><path d="M1116,944L1176,795L1024,837Z" fill="#cbb77f" stroke="#cbb77f" stroke-width="1.51"/><path d="M1389,690L1351,571L1253,573Z" fill="#c5af7f" stroke="#c5af7f" stroke-width="1.51"/><path d="M317,-2L264,-60L264,126Z" fill="#613b7c" stroke="#613b7c" stroke-width="1.51"/><path d="M452,-217L264,-60L317,-2Z" fill="#5b357b" stroke="#5b357b" stroke-width="1.51"/><path d="M20,397L-44,476L79,573Z" fill="#77527e" stroke="#77527e" stroke-width="1.51"/><path d="M-40,323L-44,476L20,397Z" fill="#6e487d" stroke="#6e487d" stroke-width="1.51"/><path d="M130,-60L46,119L264,126Z" fill="#5c367b" stroke="#5c367b" stroke-width="1.51"/><path d="M-81,265L-40,323L108,284Z" fill="#67417c" stroke="#67417c" stroke-width="1.51"/><path d="M1052,1091L1116,944L901,945Z" fill="#d1be7e" stroke="#d1be7e" stroke-width="1.51"/><path d="M266,950L303,1083L409,954Z" fill="#ae9180" stroke="#ae9180" stroke-width="1.51"/><path d="M531,1062L303,1083L674,1076Z" fill="#bca37f" stroke="#bca37f" stroke-width="1.51"/><path d="M674,1076L977,1097L851,1073Z" fill="#cdba7f" stroke="#cdba7f" stroke-width="1.51"/><path d="M239,1083L303,1083L266,950Z" fill="#ae917f" stroke="#ae917f" stroke-width="1.51"/><path d="M-44,778L47,851L53,692Z" fill="#8e6b7f" stroke="#8e6b7f" stroke-width="1.51"/><path d="M53,692L47,851L239,753Z" fill="#926f7f" stroke="#926f7f" stroke-width="1.51"/><path d="M-44,476L-50,626L79,573Z" fill="#7c577e" stroke="#7c577e" stroke-width="1.51"/><path d="M-213,679L-50,626L-267,517Z" fill="#76517e" stroke="#76517e" stroke-width="1.51"/><path d="M1118,120L1094,-30L910,53Z" fill="#8d6b7f" stroke="#8d6b7f" stroke-width="1.51"/><path d="M1215,-48L1094,-30L1118,120Z" fill="#916e7f" stroke="#916e7f" stroke-width="1.51"/><path d="M893,-248L804,-199L928,-70Z" fill="#744e7d" stroke="#744e7d" stroke-width="1.51"/><path d="M928,-70L804,-199L841,-71Z" fill="#78527e" stroke="#78527e" stroke-width="1.51"/><path d="M562,-109L452,-217L376,44Z" fill="#623c7c" stroke="#623c7c" stroke-width="1.51"/><path d="M1348,256L1187,230L1186,367Z" fill="#a98c7f" stroke="#a98c7f" stroke-width="1.51"/><path d="M1187,230L1234,126L1132,180Z" fill="#9f7f80" stroke="#9f7f80" stroke-width="1.51"/><path d="M804,-199L633,-234L696,-4Z" fill="#6d477d" stroke="#6d477d" stroke-width="1.51"/><path d="M303,1083L977,1097L674,1076Z" fill="#c4ae7f" stroke="#c4ae7f" stroke-width="1.51"/><path d="M851,1073L977,1097L901,945Z" fill="#cebb7e" stroke="#cebb7e" stroke-width="1.51"/><path d="M633,-234L452,-217L562,-109Z" fill="#603a7c" stroke="#603a7c" stroke-width="1.51"/><path d="M264,-60L130,-60L264,126Z" fill="#5b367b" stroke="#5b367b" stroke-width="1.51"/><path d="M-233,1141L1256,1114L977,1097Z" fill="#c7b27f" stroke="#c7b27f" stroke-width="1.51"/><path d="M72,980L239,1083L266,950Z" fill="#a78980" stroke="#a78980" stroke-width="1.51"/><path d="M162,-216L130,-60L264,-60Z" fill="#4f2b7a" stroke="#4f2b7a" stroke-width="1.51"/><path d="M-50,626L-44,778L53,692Z" fill="#86627e" stroke="#86627e" stroke-width="1.51"/><path d="M47,851L72,980L266,950Z" fill="#9f7f7f" stroke="#9f7f7f" stroke-width="1.51"/><path d="M-40,323L-169,382L-44,476Z" fill="#6a447c" stroke="#6a447c" stroke-width="1.51"/><path d="M-50,626L-213,679L-44,778Z" fill="#815c7e" stroke="#815c7e" stroke-width="1.51"/><path d="M46,119L-81,265L108,284Z" fill="#623d7c" stroke="#623d7c" stroke-width="1.51"/><path d="M-92,75L-81,265L46,119Z" fill="#58337b" stroke="#58337b" stroke-width="1.51"/><path d="M1253,573L1352,400L1186,367Z" fill="#b69c7f" stroke="#b69c7f" stroke-width="1.51"/><path d="M1351,571L1352,400L1253,573Z" fill="#bea67f" stroke="#bea67f" stroke-width="1.51"/><path d="M1253,573L1180,725L1389,690Z" fill="#c6b07f" stroke="#c6b07f" stroke-width="1.51"/><path d="M1389,690L1180,725L1176,795Z" fill="#cab57f" stroke="#cab57f" stroke-width="1.51"/><path d="M-75,959L72,980L47,851Z" fill="#99787f" stroke="#99787f" stroke-width="1.51"/><path d="M1116,944L1219,938L1176,795Z" fill="#d1bf7e" stroke="#d1bf7e" stroke-width="1.51"/><path d="M977,1097L1052,1091L901,945Z" fill="#d2c07e" stroke="#d2c07e" stroke-width="1.51"/><path d="M1256,1114L1219,938L1116,944Z" fill="#daca7d" stroke="#daca7d" stroke-width="1.51"/><path d="M1352,400L1348,256L1186,367Z" fill="#b09480" stroke="#b09480" stroke-width="1.51"/><path d="M1081,-146L893,-248L928,-70Z" fill="#7a557e" stroke="#7a557e" stroke-width="1.51"/><path d="M804,-199L893,-248L633,-234Z" fill="#69447d" stroke="#69447d" stroke-width="1.51"/><path d="M1094,-30L1081,-146L928,-70Z" fill="#84607e" stroke="#84607e" stroke-width="1.51"/><path d="M1215,-48L1081,-146L1094,-30Z" fill="#89667f" stroke="#89667f" stroke-width="1.51"/><path d="M1215,-48L1118,120L1234,126Z" fill="#97767f" stroke="#97767f" stroke-width="1.51"/><path d="M452,-217L359,-256L264,-60Z" fill="#542f7a" stroke="#542f7a" stroke-width="1.51"/><path d="M633,-234L359,-256L452,-217Z" fill="#57327b" stroke="#57327b" stroke-width="1.51"/><path d="M893,-248L359,-256L633,-234Z" fill="#5f3a7c" stroke="#5f3a7c" stroke-width="1.51"/><path d="M1398,87L1215,-48L1234,126Z" fill="#9b7a7f" stroke="#9b7a7f" stroke-width="1.51"/><path d="M72,980L73,1054L239,1083Z" fill="#a78980" stroke="#a78980" stroke-width="1.51"/><path d="M-75,959L73,1054L72,980Z" fill="#9e7f80" stroke="#9e7f80" stroke-width="1.51"/><path d="M-81,265L-169,382L-40,323Z" fill="#643e7c" stroke="#643e7c" stroke-width="1.51"/><path d="M-165,228L-169,382L-81,265Z" fill="#5e397b" stroke="#5e397b" stroke-width="1.51"/><path d="M1351,571L1494,512L1352,400Z" fill="#c0a97f" stroke="#c0a97f" stroke-width="1.51"/><path d="M1497,175L1398,87L1348,256Z" fill="#aa8d80" stroke="#aa8d80" stroke-width="1.51"/><path d="M1405,823L1389,690L1176,795Z" fill="#d0bd7e" stroke="#d0bd7e" stroke-width="1.51"/><path d="M-25,-55L-92,75L46,119Z" fill="#502c7a" stroke="#502c7a" stroke-width="1.51"/><path d="M-25,-55L46,119L130,-60Z" fill="#512d7a" stroke="#512d7a" stroke-width="1.51"/><path d="M-92,75L-165,228L-81,265Z" fill="#57327b" stroke="#57327b" stroke-width="1.51"/><path d="M359,-256L162,-216L264,-60Z" fill="#4e2a7a" stroke="#4e2a7a" stroke-width="1.51"/><path d="M1219,938L1343,899L1176,795Z" fill="#d4c27e" stroke="#d4c27e" stroke-width="1.51"/><path d="M1388,1039L1343,899L1219,938Z" fill="#ddce7d" stroke="#ddce7d" stroke-width="1.51"/><path d="M60,-193L-25,-55L130,-60Z" fill="#46247a" stroke="#46247a" stroke-width="1.51"/><path d="M-205,810L-75,959L-44,778Z" fill="#8c697f" stroke="#8c697f" stroke-width="1.51"/><path d="M-44,778L-75,959L47,851Z" fill="#926f7f" stroke="#926f7f" stroke-width="1.51"/><path d="M1495,412L1348,256L1352,400Z" fill="#b79d7f" stroke="#b79d7f" stroke-width="1.51"/><path d="M1343,899L1405,823L1176,795Z" fill="#d4c37e" stroke="#d4c37e" stroke-width="1.51"/><path d="M-267,517L-50,626L-44,476Z" fill="#744e7e" stroke="#744e7e" stroke-width="1.51"/><path d="M-267,517L-44,476L-169,382Z" fill="#6b457c" stroke="#6b457c" stroke-width="1.51"/><path d="M1494,512L1351,571L1499,694Z" fill="#cab57f" stroke="#cab57f" stroke-width="1.51"/><path d="M1348,256L1398,87L1234,126Z" fill="#a58680" stroke="#a58680" stroke-width="1.51"/><path d="M1499,694L1351,571L1389,690Z" fill="#ccb97e" stroke="#ccb97e" stroke-width="1.51"/><path d="M162,-216L60,-193L130,-60Z" fill="#452379" stroke="#452379" stroke-width="1.51"/><path d="M1494,512L1495,412L1352,400Z" fill="#bfa77f" stroke="#bfa77f" stroke-width="1.51"/><path d="M-165,228L-267,517L-169,382Z" fill="#623c7c" stroke="#623c7c" stroke-width="1.51"/><path d="M-92,75L-191,118L-165,228Z" fill="#502b7a" stroke="#502b7a" stroke-width="1.51"/><path d="M-261,-4L-191,118L-92,75Z" fill="#462479" stroke="#462479" stroke-width="1.51"/><path d="M-261,-4L-92,75L-25,-55Z" fill="#44227a" stroke="#44227a" stroke-width="1.51"/><path d="M-191,118L-267,517L-165,228Z" fill="#5a347b" stroke="#5a347b" stroke-width="1.51"/><path d="M1380,-50L1170,-221L1215,-48Z" fill="#8e6b7f" stroke="#8e6b7f" stroke-width="1.51"/><path d="M1215,-48L1170,-221L1081,-146Z" fill="#86627f" stroke="#86627f" stroke-width="1.51"/><path d="M1081,-146L1170,-221L893,-248Z" fill="#7b567e" stroke="#7b567e" stroke-width="1.51"/><path d="M-270,950L-205,810L-213,679Z" fill="#835f7e" stroke="#835f7e" stroke-width="1.51"/><path d="M-213,679L-205,810L-44,778Z" fill="#835f7e" stroke="#835f7e" stroke-width="1.51"/><path d="M1343,899L1566,961L1405,823Z" fill="#ded07d" stroke="#ded07d" stroke-width="1.51"/><path d="M1052,1091L1256,1114L1116,944Z" fill="#dacc7d" stroke="#dacc7d" stroke-width="1.51"/><path d="M977,1097L1256,1114L1052,1091Z" fill="#dccd7d" stroke="#dccd7d" stroke-width="1.51"/><path d="M-233,1141L977,1097L303,1083Z" fill="#b69d7f" stroke="#b69d7f" stroke-width="1.51"/><path d="M1494,512L1606,470L1495,412Z" fill="#c5af7f" stroke="#c5af7f" stroke-width="1.51"/><path d="M1405,823L1499,694L1389,690Z" fill="#d3c17e" stroke="#d3c17e" stroke-width="1.51"/><path d="M1532,770L1499,694L1405,823Z" fill="#d7c77d" stroke="#d7c77d" stroke-width="1.51"/><path d="M239,1083L-233,1141L303,1083Z" fill="#aa8d80" stroke="#aa8d80" stroke-width="1.51"/><path d="M73,1054L-74,1087L239,1083Z" fill="#a68980" stroke="#a68980" stroke-width="1.51"/><path d="M-75,959L-74,1087L73,1054Z" fill="#9e7f80" stroke="#9e7f80" stroke-width="1.51"/><path d="M-270,950L-74,1087L-75,959Z" fill="#96747f" stroke="#96747f" stroke-width="1.51"/><path d="M1398,87L1380,-50L1215,-48Z" fill="#99797f" stroke="#99797f" stroke-width="1.51"/><path d="M1521,-2L1380,-50L1398,87Z" fill="#a08080" stroke="#a08080" stroke-width="1.51"/><path d="M1495,412L1497,175L1348,256Z" fill="#b49980" stroke="#b49980" stroke-width="1.51"/><path d="M1615,377L1497,175L1495,412Z" fill="#bba27f" stroke="#bba27f" stroke-width="1.51"/><path d="M60,-193L-86,-152L-25,-55Z" fill="#3e1d79" stroke="#3e1d79" stroke-width="1.51"/><path d="M1256,1114L1388,1039L1219,938Z" fill="#e0d37c" stroke="#e0d37c" stroke-width="1.51"/><path d="M1499,694L1606,470L1494,512Z" fill="#cbb87e" stroke="#cbb87e" stroke-width="1.51"/><path d="M1566,961L1532,770L1405,823Z" fill="#ded17d" stroke="#ded17d" stroke-width="1.51"/><path d="M1698,694L1606,470L1499,694Z" fill="#d3c27e" stroke="#d3c27e" stroke-width="1.51"/><path d="M1606,470L1615,377L1495,412Z" fill="#c4ae7f" stroke="#c4ae7f" stroke-width="1.51"/><path d="M1497,175L1538,34L1398,87Z" fill="#a88b80" stroke="#a88b80" stroke-width="1.51"/><path d="M-86,-152L-261,-4L-25,-55Z" fill="#3c1c79" stroke="#3c1c79" stroke-width="1.51"/><path d="M-191,118L-261,-4L-267,517Z" fill="#502c7b" stroke="#502c7b" stroke-width="1.51"/><path d="M-267,517L-270,950L-213,679Z" fill="#7a557e" stroke="#7a557e" stroke-width="1.51"/><path d="M-205,810L-270,950L-75,959Z" fill="#8d6a7f" stroke="#8d6a7f" stroke-width="1.51"/><path d="M1600,88L1538,34L1497,175Z" fill="#ac8f80" stroke="#ac8f80" stroke-width="1.51"/><path d="M1380,-50L1422,-230L1170,-221Z" fill="#8d6a7f" stroke="#8d6a7f" stroke-width="1.51"/><path d="M1538,34L1521,-2L1398,87Z" fill="#a48680" stroke="#a48680" stroke-width="1.51"/><path d="M1615,377L1596,176L1497,175Z" fill="#b79d80" stroke="#b79d80" stroke-width="1.51"/><path d="M-86,-152L-182,-189L-261,-4Z" fill="#331578" stroke="#331578" stroke-width="1.51"/><path d="M60,-193L-182,-189L-86,-152Z" fill="#341678" stroke="#341678" stroke-width="1.51"/><path d="M162,-216L-182,-189L60,-193Z" fill="#391978" stroke="#391978" stroke-width="1.51"/><path d="M359,-256L-182,-189L162,-216Z" fill="#3f1e79" stroke="#3f1e79" stroke-width="1.51"/><path d="M1672,-34L1600,88L1596,176Z" fill="#af9280" stroke="#af9280" stroke-width="1.51"/><path d="M1596,176L1600,88L1497,175Z" fill="#b09480" stroke="#b09480" stroke-width="1.51"/><path d="M1538,34L1672,-34L1521,-2Z" fill="#a6887f" stroke="#a6887f" stroke-width="1.51"/><path d="M1388,1039L1566,961L1343,899Z" fill="#e3d77c" stroke="#e3d77c" stroke-width="1.51"/><path d="M1532,770L1698,694L1499,694Z" fill="#d9ca7d" stroke="#d9ca7d" stroke-width="1.51"/><path d="M1606,470L1698,694L1615,377Z" fill="#cebb7e" stroke="#cebb7e" stroke-width="1.51"/><path d="M1503,1116L1566,961L1388,1039Z" fill="#eae27b" stroke="#eae27b" stroke-width="1.51"/><path d="M1510,-229L1422,-230L1380,-50Z" fill="#93717f" stroke="#93717f" stroke-width="1.51"/><path d="M1170,-221L1422,-230L893,-248Z" fill="#7f5a7e" stroke="#7f5a7e" stroke-width="1.51"/><path d="M1510,-229L1380,-50L1521,-2Z" fill="#9a7980" stroke="#9a7980" stroke-width="1.51"/><path d="M-270,950L-233,1141L-74,1087Z" fill="#98777f" stroke="#98777f" stroke-width="1.51"/><path d="M-74,1087L-233,1141L239,1083Z" fill="#a48580" stroke="#a48580" stroke-width="1.51"/><path d="M1566,961L1661,785L1532,770Z" fill="#e2d57c" stroke="#e2d57c" stroke-width="1.51"/><path d="M1615,377L1672,-34L1596,176Z" fill="#b59b7f" stroke="#b59b7f" stroke-width="1.51"/><path d="M1566,961L1710,937L1661,785Z" fill="#e8df7b" stroke="#e8df7b" stroke-width="1.51"/><path d="M1256,1114L1503,1116L1388,1039Z" fill="#e9df7b" stroke="#e9df7b" stroke-width="1.51"/><path d="M-233,1141L1503,1116L1256,1114Z" fill="#d0be7e" stroke="#d0be7e" stroke-width="1.51"/><path d="M1661,785L1698,694L1532,770Z" fill="#ddd07c" stroke="#ddd07c" stroke-width="1.51"/><path d="M1422,-230L1510,-229L893,-248Z" fill="#85617f" stroke="#85617f" stroke-width="1.51"/><path d="M1621,-187L1510,-229L1521,-2Z" fill="#9b7a80" stroke="#9b7a80" stroke-width="1.51"/><path d="M1600,88L1672,-34L1538,34Z" fill="#aa8c80" stroke="#aa8c80" stroke-width="1.51"/><path d="M1698,694L1672,-34L1615,377Z" fill="#c3ad7f" stroke="#c3ad7f" stroke-width="1.51"/><path d="M1698,694L1710,937L1672,-34Z" fill="#d2c07e" stroke="#d2c07e" stroke-width="1.51"/><path d="M1661,785L1710,937L1698,694Z" fill="#e4da7b" stroke="#e4da7b" stroke-width="1.51"/><path d="M1679,1077L1710,937L1566,961Z" fill="#f0e87a" stroke="#f0e87a" stroke-width="1.51"/><path d="M1672,-34L1621,-187L1521,-2Z" fill="#a28380" stroke="#a28380" stroke-width="1.51"/><path d="M1503,1116L1679,1077L1566,961Z" fill="#f0e97a" stroke="#f0e97a" stroke-width="1.51"/></svg>